<?xml version="1.0" encoding="utf-8"?>
<svg width="51px" height="51px" viewBox="0 0 51 51" version="1.1" xmlns:xlink="http://www.w3.org/1999/xlink" xmlns="http://www.w3.org/2000/svg">
  <g id="002-bacteria" transform="translate(0.375 0.375)">
    <path d="M42.6777 7.32235C37.9558 2.60039 31.6777 0 25 0C18.3223 0 12.0442 2.60039 7.32235 7.32235C2.60039 12.0442 0 18.3223 0 25C0 31.6777 2.60039 37.9558 7.32235 42.6777C12.0442 47.3996 18.3223 50 25 50C31.6777 50 37.9558 47.3996 42.6777 42.6776C47.3997 37.9557 50 31.6777 50 25C50 18.3223 47.3996 12.0442 42.6777 7.32235ZM27.6177 33.3313C25.0872 35.4505 22.7047 36.7023 20.3343 37.1579C17.5941 37.685 14.7798 36.9894 13.1651 35.3863C11.5172 33.7503 11.2917 30.9957 12.6824 29.4914C13.3874 28.7288 14.4509 28.2174 15.5768 27.6761C16.1021 27.4235 16.6452 27.1625 17.1758 26.8642C18.4345 26.1567 19.5826 25.2314 20.5674 24.1405L30.9006 30.1021C29.9157 31.2431 28.8187 32.3256 27.6177 33.3313L27.6177 33.3313ZM22.3044 21.7471C23.1056 20.3521 23.6657 18.8201 23.9351 17.2701C24.165 15.9475 24.6539 13.9576 25.1435 12.7131C26.0373 10.4411 27.6459 9.80304 29.7924 9.80304C30.1993 9.80304 30.6259 9.82598 31.0702 9.8651C34.2438 10.1442 35.6267 12.752 36.1685 14.2817C36.6701 15.6976 36.705 17.4152 36.275 19.5323C35.6959 22.3843 34.4752 25.1772 32.7132 27.7522L22.3044 21.7471ZM37.6187 10.6739C36.4819 9.02118 34.9495 7.8598 33.1453 7.29382L33.6178 4.6948C36.1748 5.78422 38.4849 7.34363 40.4407 9.26294L37.6187 10.6739ZM36.6535 26.933L40.8584 27.6771L41.3709 24.7809L37.9422 24.1742C38.371 23.0946 38.7202 21.9968 38.9854 20.8878L42.5046 21.2304L42.7895 18.303L39.4654 17.9795C39.6064 16.2352 39.4333 14.6908 38.9413 13.301L42.4633 11.5399C45.3428 15.2671 47.0588 19.9366 47.0588 25C47.0588 28.4877 46.2439 31.7882 44.7965 34.7232L35.2656 29.2246C35.7687 28.4765 36.2328 27.7119 36.6535 26.933L36.6535 26.933ZM25 2.94118C27.0089 2.94118 28.9553 3.21265 30.8061 3.71814L30.2331 6.86941C29.1089 6.83755 27.7593 6.92402 26.4879 7.40578C26.1738 7.5248 25.8752 7.66539 25.5896 7.82363L23.0987 5.33275L21.019 7.41245L23.3975 9.79098C23.009 10.3332 22.6774 10.9478 22.4065 11.6365C22.1616 12.2589 21.9264 13.0066 21.717 13.7697L18.1932 12.3602L17.1009 15.091L21.0543 16.6724C21.0488 16.7034 21.0426 16.7362 21.0374 16.7666C20.8266 17.9791 20.3869 19.1805 19.7572 20.2776L6.67676 12.7311C10.64 6.83137 17.374 2.94118 25 2.94118ZM5.20353 15.2768L17.9462 22.6283C17.28 23.2853 16.5355 23.8502 15.7347 24.3003C15.3969 24.4902 15.0425 24.6674 14.672 24.8472L11.8241 21.9993L9.74441 24.079L11.9573 26.2919C11.4473 26.6307 10.9615 27.0201 10.5226 27.4948C10.1978 27.8461 9.91853 28.2308 9.68422 28.6413L6.69137 27.9762L6.05333 30.8473L8.84235 31.4671C8.81569 31.8423 8.81676 32.2253 8.84892 32.6142C8.93069 33.6047 9.21108 34.5793 9.65363 35.4669L6.80686 37.4596C4.3699 33.912 2.94118 29.62 2.94118 25C2.94118 21.5123 3.75608 18.2118 5.20353 15.2768L5.20353 15.2768ZM25 47.0588C18.5132 47.0588 12.6721 44.2439 8.63225 39.7721L11.4449 37.8032C12.9527 39.1366 14.9737 39.9667 17.1693 40.2047L17.1693 43.6275L20.1105 43.6275L20.1105 40.1706C20.37 40.1371 20.6299 40.0963 20.8896 40.0464C21.9012 39.8519 22.9058 39.5446 23.9106 39.122L25.4623 42.7187L28.1629 41.5537L26.5266 37.7608C27.5117 37.1502 28.5027 36.4266 29.5062 35.5862C29.6109 35.4985 29.7137 35.4095 29.817 35.3208L32.3592 38.1484L34.5464 36.1819L31.9576 33.3026C32.4932 32.7483 33.0041 32.1788 33.489 31.5953L43.3231 37.2688C39.3599 43.1686 32.626 47.0588 25 47.0588L25 47.0588Z" id="Shape" fill="#FFFFFF" stroke="#041A30" stroke-width="0.75" />
    <path d="M0 0L2.94118 0L2.94118 2.94118L0 2.94118L0 0Z" transform="translate(17.647058 30.882353)" id="Path" fill="#FFFFFF" stroke="#041A30" stroke-width="0.75" />
    <path d="M0 0L2.94118 0L2.94118 2.94118L0 2.94118L0 0Z" transform="translate(28.921568 14.705882)" id="Path" fill="#FFFFFF" stroke="#041A30" stroke-width="0.75" />
  </g>
</svg>