<?xml version="1.0" encoding="UTF-8"?>
<svg width="45px" height="46px" viewBox="0 0 45 46" version="1.1" xmlns="http://www.w3.org/2000/svg" xmlns:xlink="http://www.w3.org/1999/xlink">
    <title>002-calendar copy 2</title>
    <g id="Page-1" stroke="none" stroke-width="1" fill="none" fill-rule="evenodd">
        <g id="01_landing_funnel---oriya" transform="translate(-321.000000, -3620.000000)" fill="#FFFEF2">
            <g id="002-calendar-copy-2" transform="translate(321.000000, 3620.000000)">
                <path d="M32.8192831,3.22807018 C32.4635413,1.38887719 30.9189334,0 29.0713713,0 C28.6483063,0 28.3063352,0.360736842 28.3063352,0.807017544 C28.3063352,1.25329825 28.6483063,1.61403509 29.0713713,1.61403509 C30.336741,1.61403509 31.3664796,2.7002807 31.3664796,4.03508772 C31.3664796,5.36989474 30.336741,6.45614035 29.0713713,6.45614035 C28.6483063,6.45614035 28.3063352,6.81687719 28.3063352,7.26315789 C28.3063352,7.7094386 28.6483063,8.07017544 29.0713713,8.07017544 C30.9181684,8.07017544 32.4635413,6.68129825 32.8192831,4.84210526 L42.8420209,4.84210526 L42.8420209,12.1052632 L1.53007217,12.1052632 L1.53007217,4.84210526 L12.2405774,4.84210526 L14.5356856,4.84210526 C14.9587506,4.84210526 15.3007217,4.48136842 15.3007217,4.03508772 C15.3007217,3.58880702 14.9587506,3.22807018 14.5356856,3.22807018 L13.1463801,3.22807018 C13.4631051,2.29031579 14.3046447,1.61403509 15.3007217,1.61403509 C16.5660914,1.61403509 17.59583,2.7002807 17.59583,4.03508772 C17.59583,5.36989474 16.5660914,6.45614035 15.3007217,6.45614035 C14.8776568,6.45614035 14.5356856,6.81687719 14.5356856,7.26315789 C14.5356856,7.7094386 14.8776568,8.07017544 15.3007217,8.07017544 C17.4099262,8.07017544 19.1259022,6.26003509 19.1259022,4.03508772 C19.1259022,1.81014035 17.4099262,0 15.3007217,0 C13.4539246,0 11.9085517,1.38887719 11.5528099,3.22807018 L0,3.22807018 L0,13.7192982 L0,46 L44.372093,46 L44.372093,13.7192982 L44.372093,3.22807018 L32.8192831,3.22807018 Z M42.8420209,44.3859649 L1.53007217,44.3859649 L1.53007217,13.7192982 L42.8420209,13.7192982 L42.8420209,44.3859649 Z" id="Shape" fill-rule="nonzero"></path>
                <path d="M19.9534884,1.59230769 C21.1074419,1.59230769 22.0465116,2.66393077 22.0465116,3.98076923 C22.0465116,5.29760769 21.1074419,6.36923077 19.9534884,6.36923077 C19.5676744,6.36923077 19.255814,6.72511154 19.255814,7.16538462 C19.255814,7.60565769 19.5676744,7.96153846 19.9534884,7.96153846 C21.8769767,7.96153846 23.4418605,6.17576538 23.4418605,3.98076923 C23.4418605,1.78577308 21.8769767,0 19.9534884,0 C19.5676744,0 19.255814,0.355880769 19.255814,0.796153846 C19.255814,1.23642692 19.5676744,1.59230769 19.9534884,1.59230769 Z" id="Shape" fill-rule="nonzero"></path>
                <path d="M24.1395349,1.59230769 C25.2934884,1.59230769 26.2325581,2.66393077 26.2325581,3.98076923 C26.2325581,5.29760769 25.2934884,6.36923077 24.1395349,6.36923077 C23.7537209,6.36923077 23.4418605,6.72511154 23.4418605,7.16538462 C23.4418605,7.60565769 23.7537209,7.96153846 24.1395349,7.96153846 C26.0630233,7.96153846 27.627907,6.17576538 27.627907,3.98076923 C27.627907,1.78577308 26.0630233,0 24.1395349,0 C23.7537209,0 23.4418605,0.355880769 23.4418605,0.796153846 C23.4418605,1.23642692 23.7537209,1.59230769 24.1395349,1.59230769 Z" id="Shape" fill-rule="nonzero"></path>
                <text id="30" font-family=".AppleSystemUIFont" font-size="20" font-weight="normal">
                    <tspan x="8.37209302" y="34.8090909">30</tspan>
                </text>
            </g>
        </g>
    </g>
</svg>