<svg width="229" height="26" viewBox="0 0 229 26" fill="none" xmlns="http://www.w3.org/2000/svg">
<g id="credit card icons">
<g id="v copy">
<path id="Path" d="M86.3443 24.5882C86.3443 25.3529 85.731 26 85.0062 26H48.2644C47.5396 26 46.9263 25.3529 46.9263 24.5882V1.41176C46.9263 0.647059 47.5396 0 48.2644 0H85.0062C85.731 0 86.3443 0.647059 86.3443 1.41176V24.5882V24.5882Z" fill="#FCFCFC"/>
<g id="Group">
<g id="Group_2">
<path id="Path_2" d="M65.102 16.8824H63.1506L64.3772 9.11768H66.2729L65.102 16.8824Z" fill="#0066B2"/>
<path id="Path_3" d="M61.5337 9.11765L59.6939 14.4706L59.4708 13.2941V13.2941L58.8018 9.76471C58.8018 9.76471 58.746 9.05882 57.9097 9.05882H54.899L54.8433 9.17647C54.8433 9.17647 55.7911 9.35294 56.8504 10.0588L58.523 16.8235H60.5302L63.5966 9H61.5337V9.11765Z" fill="#0066B2"/>
<path id="Shape" fill-rule="evenodd" clip-rule="evenodd" d="M78.483 16.8824H76.6989L76.4758 15.7059H74.0227L73.6324 16.8824H71.6252L74.4687 9.64707C74.4687 9.64707 74.636 9.05884 75.3608 9.05884H76.9219L78.483 16.8824ZM75.5838 11.1765L74.5802 14.1177H76.1413L75.5838 11.1765Z" fill="#0066B2"/>
<path id="Path_4" d="M71.7366 10.9412L72.0154 9.2941C72.0154 9.2941 71.1791 8.94116 70.287 8.94116C69.3392 8.94116 67.0533 9.35293 67.0533 11.5294C67.0533 13.5294 69.7295 13.5882 69.7295 14.647C69.7295 15.7059 67.332 15.5294 66.5515 14.8235L66.2727 16.5882C66.2727 16.5882 67.109 17 68.4471 17C69.7852 17 71.7366 16.2941 71.7366 14.3529C71.7366 12.3529 69.0604 12.1176 69.0604 11.2353C69.0604 10.3529 70.9003 10.4706 71.7366 10.9412Z" fill="#0066B2"/>
</g>
<path id="Path_5" d="M59.4708 13.2941L58.8018 9.76472C58.8018 9.76472 58.746 9.05884 57.9097 9.05884H54.899L54.8433 9.17648C54.8433 9.17648 56.2929 9.4706 57.6867 10.7059C59.0806 11.8824 59.4708 13.2941 59.4708 13.2941Z" fill="#F9A533"/>
</g>
</g>
<g id="pp copy">
<path id="Path_6" d="M39.418 24.5882C39.418 25.3529 38.8047 26 38.0799 26H1.33809C0.613293 26 0 25.3529 0 24.5882V1.41176C0 0.647059 0.613293 0 1.33809 0H38.0799C38.8047 0 39.418 0.647059 39.418 1.41176V24.5882V24.5882Z" fill="#FCFCFC"/>
<g id="pp">
<path id="Shape_2" fill-rule="evenodd" clip-rule="evenodd" d="M26.0928 11.3529C26.6503 11.3529 27.0406 11.4706 27.2636 11.5882C27.5424 11.7058 27.6539 11.9411 27.7096 12.1764V12.3529V12.5294L27.2078 14.7058C27.2078 14.8235 27.0406 14.9411 26.9291 14.9411H26.8176H26.3158C26.2043 14.9411 26.1485 14.8235 26.1485 14.7058V14.5882C26.0928 14.647 26.037 14.7058 25.9255 14.7647C25.8698 14.7941 25.8279 14.8235 25.7861 14.8529C25.7443 14.8823 25.7025 14.9117 25.6467 14.9411C25.5352 15 25.4237 15.0588 25.3122 15.0588C25.2565 15.1176 25.0892 15.1176 24.9219 15.1176C24.6432 15.1176 24.4202 15.0588 24.2529 14.8823C24.0856 14.7058 23.9741 14.5294 23.9741 14.2353C23.9741 13.9411 24.0299 13.7058 24.1414 13.5294C24.2529 13.3529 24.4759 13.1764 24.6989 13.0588C24.9219 12.9411 25.2007 12.8823 25.5352 12.8235C25.814 12.7647 26.0928 12.7058 26.483 12.7058C26.5388 12.7058 26.5946 12.647 26.5946 12.647V12.5294C26.5946 12.4117 26.483 12.2941 26.3715 12.2353C26.2043 12.1764 26.037 12.1176 25.7582 12.1176C25.591 12.0588 25.368 12.1176 25.145 12.1764C25.0796 12.1937 25.0287 12.2058 24.9864 12.2159C24.8845 12.2403 24.8335 12.2525 24.7547 12.2941C24.6989 12.3529 24.5874 12.3529 24.6432 12.1176L24.6989 11.7647C24.6989 11.7647 24.7547 11.5294 24.9777 11.4706C25.0143 11.4706 25.0389 11.4706 25.0633 11.4685C25.1133 11.4642 25.1624 11.4512 25.3122 11.4117C25.591 11.3529 25.814 11.3529 26.0928 11.3529ZM25.8698 14.2941C25.9813 14.2941 26.0928 14.2353 26.1485 14.1764L26.3158 14C26.3158 13.8881 26.3606 13.7053 26.3934 13.5715C26.4124 13.4942 26.4273 13.4333 26.4273 13.4117C26.4273 13.3818 26.4273 13.3671 26.4199 13.3599C26.4129 13.3529 26.3989 13.3529 26.3715 13.3529C26.3511 13.3529 26.3008 13.3608 26.2371 13.3708C26.1267 13.3881 25.9758 13.4117 25.8698 13.4117C25.793 13.4387 25.7163 13.4533 25.645 13.4669C25.5608 13.4829 25.4841 13.4975 25.4237 13.5294C25.3122 13.5294 25.2007 13.647 25.145 13.7058C25.0892 13.8235 25.0334 13.9411 25.0334 14.0588C25.0334 14.1764 25.0334 14.2353 25.145 14.2941C25.2565 14.3529 25.368 14.3529 25.5352 14.3529C25.6467 14.3529 25.7582 14.3529 25.8698 14.2941Z" fill="#336699"/>
<path id="Path_7" d="M19.0677 11.4117C18.9005 11.4117 18.7332 11.5294 18.6775 11.7058C18.6775 11.7058 17.7297 13.4117 17.6181 13.5882C17.5624 13.7058 17.5066 13.647 17.5066 13.5882C17.5066 13.5294 17.2279 11.7058 17.2279 11.7058C17.1721 11.5882 17.0606 11.4117 16.8933 11.4117H16.2801C16.1128 11.4117 16.057 11.5294 16.057 11.647C16.057 11.647 16.5031 14.3529 16.6146 14.9411C16.6703 15.2941 16.6146 15.3529 16.6146 15.3529L16.057 16.4117C15.9455 16.5294 16.0013 16.647 16.1685 16.647H16.8376C17.0049 16.647 17.1721 16.5294 17.2279 16.4117L19.8483 11.7647C19.8483 11.7647 20.0713 11.3529 19.8483 11.3529C19.681 11.4117 19.0677 11.4117 19.0677 11.4117" fill="#003366"/>
<path id="Shape_3" fill-rule="evenodd" clip-rule="evenodd" d="M11.9641 10.6747C12.0616 10.7664 12.1678 10.8663 12.21 10.9999C12.2916 11.0861 12.3135 11.2352 12.3412 11.4244C12.3514 11.4936 12.3623 11.5682 12.3773 11.647C12.3773 12.1764 12.1542 12.647 11.7082 12.9999C11.2622 13.3529 10.5931 13.5294 9.81257 13.5294H9.64531C9.47805 13.5294 9.36654 13.647 9.31079 13.7647L9.08777 14.7647C9.03202 14.8823 8.92051 14.9999 8.75325 14.9999H8.0842C7.91694 14.9999 7.80543 14.8823 7.86118 14.7647L8.809 10.5294C8.86475 10.4117 8.97626 10.2941 9.14352 10.2941H10.5374C10.8161 10.2941 11.0949 10.2941 11.3179 10.3529C11.5409 10.4117 11.7082 10.4705 11.8755 10.5882C11.9025 10.6167 11.9329 10.6453 11.9641 10.6747ZM9.97983 12.5882C10.3701 12.5882 10.5931 12.5294 10.8161 12.3529C10.9834 12.1764 11.0949 11.9999 11.0949 11.7647C11.0949 11.5882 11.0392 11.4117 10.9276 11.3529C10.8161 11.2941 10.5931 11.2352 10.3701 11.2352H10.1471C9.97983 11.2352 9.86832 11.3529 9.81257 11.4705L9.58955 12.3529C9.58955 12.4705 9.64531 12.5882 9.81257 12.5882H9.97983Z" fill="#003366"/>
<path id="Shape_4" fill-rule="evenodd" clip-rule="evenodd" d="M23.8955 10.6747C23.993 10.7664 24.0992 10.8663 24.1414 10.9999C24.1971 11.1764 24.2529 11.3529 24.3086 11.647C24.3086 12.1764 24.0856 12.647 23.6396 12.9999C23.1936 13.3529 22.5245 13.5294 21.744 13.5294H21.5767C21.4094 13.4705 21.2979 13.647 21.2422 13.7647L21.0192 14.7647C20.9634 14.8823 20.7961 14.9999 20.6846 14.9999H20.0156C19.8483 14.9999 19.7368 14.8823 19.7926 14.7647L20.7404 10.5294C20.7962 10.4117 20.9077 10.2941 21.0749 10.2941H22.4688C22.7475 10.2941 23.0263 10.2941 23.2493 10.3529C23.4723 10.4117 23.6396 10.4705 23.8069 10.5882C23.8339 10.6167 23.8643 10.6453 23.8955 10.6747ZM21.8555 12.5882C22.2458 12.5882 22.4688 12.5294 22.6918 12.3529C22.9148 12.2352 22.9706 11.9999 22.9706 11.7647C22.9706 11.5882 22.9148 11.4705 22.8033 11.3529C22.6918 11.2941 22.5245 11.2352 22.2458 11.2352H22.0227C21.8555 11.2352 21.744 11.3529 21.6882 11.4705L21.4652 12.3529C21.4652 12.4705 21.521 12.5882 21.6882 12.5882H21.8555Z" fill="#336699"/>
<path id="Shape_5" fill-rule="evenodd" clip-rule="evenodd" d="M14.2171 11.3529C14.7747 11.3529 15.1649 11.4706 15.388 11.5882C15.611 11.7058 15.7225 11.9411 15.7782 12.2353V12.4117V12.5882L15.2765 14.7647C15.2765 14.8823 15.1092 15 14.9977 15H14.8862H14.3844C14.2729 15 14.2171 14.8823 14.2171 14.7647V14.647C14.1614 14.7058 14.1056 14.7647 13.9941 14.8235C13.9384 14.8529 13.8965 14.8823 13.8547 14.9117C13.8129 14.9411 13.7711 14.9706 13.7153 15C13.6038 15.0588 13.4923 15.1176 13.3808 15.1176C13.3251 15.1764 13.1578 15.1764 12.9905 15.1764C12.7118 15.1764 12.4888 15.1176 12.3215 14.9411C12.1542 14.7647 12.0427 14.5882 12.0427 14.2941C12.0427 14 12.0985 13.7647 12.21 13.5882C12.3215 13.4117 12.5445 13.2353 12.7675 13.1176C12.9905 13 13.2693 12.9411 13.6038 12.8823C13.8826 12.8235 14.1614 12.7647 14.5517 12.7647C14.6074 12.7647 14.6632 12.7058 14.6632 12.7058V12.5882C14.6632 12.4706 14.5517 12.3529 14.4401 12.2941C14.2729 12.2353 14.1056 12.1764 13.8269 12.1764C13.6596 12.1176 13.4366 12.1764 13.2136 12.2353C13.1482 12.2525 13.0973 12.2647 13.055 12.2748C12.9531 12.2991 12.9021 12.3113 12.8233 12.3529C12.7675 12.3529 12.656 12.3529 12.7675 12.1176L12.8233 11.7647C12.8233 11.7647 12.879 11.5294 13.102 11.4706C13.1387 11.4706 13.1633 11.4706 13.1877 11.4685C13.2376 11.4642 13.2868 11.4512 13.4366 11.4117C13.7153 11.3529 13.9384 11.3529 14.2171 11.3529ZM13.9384 14.2941C14.0499 14.2941 14.1614 14.2353 14.2171 14.1764L14.3844 14C14.3844 13.8881 14.4292 13.7053 14.462 13.5715C14.481 13.4942 14.4959 13.4333 14.4959 13.4117C14.4959 13.3818 14.4959 13.3671 14.4885 13.3599C14.4815 13.3529 14.4675 13.3529 14.4401 13.3529C14.4197 13.3529 14.3695 13.3608 14.3057 13.3708C14.1953 13.3881 14.0444 13.4117 13.9384 13.4117C13.8616 13.4387 13.7849 13.4533 13.7136 13.4669C13.6294 13.4829 13.5527 13.4975 13.4923 13.5294C13.3808 13.5294 13.2693 13.647 13.2136 13.7058C13.1578 13.8235 13.102 13.9411 13.102 14.0588C13.102 14.1764 13.102 14.2353 13.2136 14.2941C13.3251 14.3529 13.4366 14.3529 13.6038 14.3529C13.7153 14.3529 13.8269 14.3529 13.9384 14.2941Z" fill="#003366"/>
<path id="Path_8" d="M29.5495 10.3529H28.9362V10.3529V10.3529C28.8247 10.3529 28.6574 10.4706 28.6574 10.5882V10.5882C28.6574 10.5882 28.6574 10.647 28.6017 10.7647L27.8211 14.647C27.8211 14.7647 27.7654 14.8235 27.7654 14.8235V14.8235C27.7654 14.9411 27.8211 15.0588 27.9326 15.0588V15.0588H28.5459C28.6574 15.0588 28.8247 14.9411 28.8247 14.8235V14.8235L29.7168 10.647V10.647C29.7725 10.4706 29.661 10.3529 29.5495 10.3529Z" fill="#336699"/>
<g id="Group_3">
<path id="Path_9" d="M30.4414 11.257H30.3857H30.3299C30.2742 11.257 30.2184 11.257 30.1627 11.1928C30.1069 11.1928 30.1069 11.1286 30.1069 11.0644V10.6151H30.0512V10.4867H30.1069V10.2941H30.2184V10.4867H30.4414V10.6151H30.2184V10.936C30.2184 11.0002 30.2184 11.0002 30.2184 11.0002V11.0644C30.2184 11.0644 30.2184 11.0644 30.2742 11.1286H30.3299H30.3857H30.4414V11.1286V11.257V11.257Z" fill="#336699"/>
<path id="Path_10" d="M31.5006 11.2571H31.3891V10.8077V10.7435V10.6793C31.3891 10.6793 31.3891 10.6151 31.3334 10.6151H31.2776C31.2219 10.6151 31.2219 10.6151 31.1661 10.6151C31.1104 10.6151 31.1104 10.6793 31.0546 10.6793C31.0546 10.6793 31.0546 10.6793 31.0546 10.7435C31.0546 10.7435 31.0546 10.7435 31.0546 10.8077V11.2571H30.9431V10.8077C30.9431 10.7435 30.9431 10.7435 30.9431 10.7435V10.6793C30.9431 10.6793 30.9431 10.6151 30.8873 10.6151H30.8316C30.7758 10.6151 30.7758 10.6151 30.7201 10.6151C30.6643 10.6151 30.6643 10.6793 30.6086 10.6793V11.2571H30.4971V10.5509H30.6643V10.6151C30.7201 10.6151 30.7201 10.5509 30.7758 10.5509C30.8316 10.5509 30.8316 10.5509 30.8873 10.5509C30.9431 10.5509 30.9431 10.5509 30.9989 10.5509C31.0546 10.5509 31.0546 10.6151 31.0546 10.6151C31.1104 10.5509 31.1104 10.5509 31.1661 10.5509C31.2219 10.5509 31.2219 10.5509 31.2776 10.5509C31.3334 10.5509 31.3891 10.5509 31.4449 10.6151C31.5006 10.6793 31.5006 10.7435 31.5006 10.8077V11.2571V11.2571Z" fill="#336699"/>
</g>
</g>
</g>
<g id="mc copy">
<path id="Path_11" d="M134.209 24.5882C134.209 25.3529 133.596 26 132.871 26H96.1291C95.4043 26 94.791 25.3529 94.791 24.5882V1.41176C94.791 0.647059 95.4043 0 96.1291 0H132.871C133.596 0 134.209 0.647059 134.209 1.41176V24.5882Z" fill="#FCFCFC"/>
<g id="Group 8">
<path id="Fill 4" fill-rule="evenodd" clip-rule="evenodd" d="M119.666 20.2223L120.028 20.2125L120.386 20.1858L120.737 20.1396L121.085 20.0761L121.424 19.9958L121.758 19.8982L122.085 19.7838L122.404 19.6547L122.717 19.5085L123.02 19.3501L123.314 19.1747L123.6 18.9871L123.875 18.785L124.14 18.5706L124.396 18.344L124.64 18.1029L124.875 17.8518L125.095 17.5887L125.303 17.3159L125.5 17.0334L125.682 16.7385L125.853 16.4364L126.007 16.1246L126.149 15.8029L126.274 15.4742L126.386 15.1378L126.481 14.7944L126.559 14.446L126.62 14.0879L126.665 13.7273L126.691 13.3594L126.701 12.9866L126.691 12.6163L126.665 12.251L126.62 11.8903L126.559 11.5371L126.481 11.1887L126.386 10.8476L126.274 10.5115L126.149 10.185L126.007 9.86584L125.853 9.55406L125.682 9.2544L125.5 8.95952L125.303 8.67689L125.095 8.40651L124.875 8.14349L124.64 7.89246L124.396 7.65369L124.14 7.42717L123.875 7.21278L123.6 7.01052L123.314 6.82296L123.02 6.64997L122.717 6.4917L122.404 6.34541L122.085 6.21642L121.758 6.10187L121.424 6.00435L121.085 5.92398L120.737 5.86065L120.386 5.81434L120.028 5.78764L119.666 5.77783L119.306 5.78764L118.948 5.81434L118.598 5.86065L118.252 5.92398L117.913 6.00435L117.579 6.10187L117.255 6.21642L116.935 6.34541L116.625 6.4917L116.324 6.64997L116.03 6.82296L115.746 7.01052L115.471 7.21278L115.206 7.42717L114.953 7.65369L114.709 7.89246L114.477 8.14349L114.256 8.40651L114.048 8.67689L113.854 8.95952L113.671 9.2544L113.503 9.55406L113.347 9.86584L113.207 10.185L113.081 10.5115L112.973 10.8476L112.878 11.1887L112.8 11.5371L112.738 11.8903L112.693 12.251L112.667 12.6163L112.657 12.9866L112.667 13.3594L112.693 13.7273L112.738 14.0879L112.8 14.446L112.878 14.7944L112.973 15.1378L113.081 15.4742L113.207 15.8029L113.347 16.1246L113.503 16.4364L113.671 16.7385L113.854 17.0334L114.048 17.3159L114.256 17.5887L114.477 17.8518L114.709 18.1029L114.953 18.344L115.206 18.5706L115.471 18.785L115.746 18.9871L116.03 19.1747L116.324 19.3501L116.625 19.5085L116.935 19.6547L117.255 19.7838L117.579 19.8982L117.913 19.9958L118.252 20.0761L118.598 20.1396L118.948 20.1858L119.306 20.2125L119.666 20.2223" fill="#F1AD3D"/>
<path id="Fill 5" fill-rule="evenodd" clip-rule="evenodd" d="M110.272 20.2223L110.633 20.2125L110.99 20.1858L111.341 20.1396L111.686 20.0761L112.025 19.9958L112.359 19.8982L112.684 19.7838L113.003 19.6547L113.314 19.5085L113.614 19.3501L113.908 19.1747L114.192 18.9871L114.467 18.785L114.733 18.5706L114.986 18.344L115.23 18.1029L115.462 17.8518L115.682 17.5887L115.891 17.3159L116.085 17.0334L116.267 16.7385L116.435 16.4364L116.592 16.1246L116.731 15.8029L116.857 15.4742L116.966 15.1378L117.061 14.7944L117.139 14.446L117.201 14.0879L117.246 13.7273L117.272 13.3594L117.281 12.9866L117.272 12.6163L117.246 12.251L117.201 11.8903L117.139 11.5371L117.061 11.1887L116.966 10.8476L116.857 10.5115L116.731 10.185L116.592 9.86584L116.435 9.55406L116.267 9.2544L116.085 8.95952L115.891 8.67689L115.682 8.40651L115.462 8.14349L115.23 7.89246L114.986 7.65369L114.733 7.42717L114.467 7.21278L114.192 7.01052L113.908 6.82296L113.614 6.64997L113.314 6.4917L113.003 6.34541L112.684 6.21642L112.359 6.10187L112.025 6.00435L111.686 5.92398L111.341 5.86065L110.99 5.81434L110.633 5.78764L110.272 5.77783L109.91 5.78764L109.552 5.81434L109.202 5.86065L108.854 5.92398L108.515 6.00435L108.181 6.10187L107.854 6.21642L107.534 6.34541L107.222 6.4917L106.919 6.64997L106.625 6.82296L106.338 7.01052L106.063 7.21278L105.798 7.42717L105.542 7.65369L105.298 7.89246L105.064 8.14349L104.844 8.40651L104.635 8.67689L104.439 8.95952L104.256 9.2544L104.086 9.55406L103.932 9.86584L103.79 10.185L103.664 10.5115L103.553 10.8476L103.458 11.1887L103.38 11.5371L103.318 11.8903L103.273 12.251L103.247 12.6163L103.238 12.9866L103.247 13.3594L103.273 13.7273L103.318 14.0879L103.38 14.446L103.458 14.7944L103.553 15.1378L103.664 15.4742L103.79 15.8029L103.932 16.1246L104.086 16.4364L104.256 16.7385L104.439 17.0334L104.635 17.3159L104.844 17.5887L105.064 17.8518L105.298 18.1029L105.542 18.344L105.798 18.5706L106.063 18.785L106.338 18.9871L106.625 19.1747L106.919 19.3501L107.222 19.5085L107.534 19.6547L107.854 19.7838L108.181 19.8982L108.515 19.9958L108.854 20.0761L109.202 20.1396L109.552 20.1858L109.91 20.2125L110.272 20.2223" fill="#D82332"/>
<path id="Fill 6" fill-rule="evenodd" clip-rule="evenodd" d="M114.147 8.54792H117.878V8.15564H114.47L114.147 8.54792" fill="#F1AD3D"/>
<path id="Fill 7" fill-rule="evenodd" clip-rule="evenodd" d="M113.588 9.41998H117.878V9.02783H113.813L113.588 9.41998" fill="#F1AD3D"/>
<path id="Fill 8" fill-rule="evenodd" clip-rule="evenodd" d="M113.172 10.2897H117.878V9.89746H113.337L113.172 10.2897" fill="#F1AD3D"/>
<path id="Fill 9" fill-rule="evenodd" clip-rule="evenodd" d="M112.885 11.1619H117.878V10.7698H113.004L112.885 11.1619" fill="#F1AD3D"/>
<path id="Fill 10" fill-rule="evenodd" clip-rule="evenodd" d="M113.051 15.3767H117.89V14.9844H112.932L113.051 15.3767" fill="#F1AD3D"/>
<path id="Fill 11" fill-rule="evenodd" clip-rule="evenodd" d="M113.408 16.2488H117.89V15.8566H113.231L113.408 16.2488" fill="#F1AD3D"/>
<path id="Fill 12" fill-rule="evenodd" clip-rule="evenodd" d="M113.911 17.1186H117.89V16.7263H113.671L113.911 17.1186" fill="#F1AD3D"/>
<path id="Fill 13" fill-rule="evenodd" clip-rule="evenodd" d="M114.602 17.9907H117.89V17.5961H114.268L114.602 17.9907" fill="#F1AD3D"/>
<path id="Fill 14" fill-rule="evenodd" clip-rule="evenodd" d="M112.717 12.0317H117.878V11.6394H112.79L112.717 12.0317" fill="#F1AD3D"/>
<path id="Fill 15" fill-rule="evenodd" clip-rule="evenodd" d="M115.862 14.507H117.831V14.1147H115.933L115.862 14.507" fill="#F1AD3D"/>
<path id="Fill 16" fill-rule="evenodd" clip-rule="evenodd" d="M116.019 13.6372H117.831V13.2424H116.09L116.019 13.6372" fill="#F1AD3D"/>
<path id="Fill 17" fill-rule="evenodd" clip-rule="evenodd" d="M112.587 13.2424H113.098V13.6372H112.61L112.587 13.2424" fill="#F1AD3D"/>
<path id="Fill 18" fill-rule="evenodd" clip-rule="evenodd" d="M111.632 12.7675L111.599 12.765L111.566 12.7601L111.535 12.7552L111.504 12.7503L111.476 12.7455L111.445 12.7406L111.414 12.7357L111.381 12.7308L111.348 12.7259L111.31 12.7235L111.267 12.7212L111.222 12.7187H111.172L111.118 12.7212L111.056 12.7259L110.988 12.7308L110.94 12.7382L110.895 12.7455L110.855 12.7601L110.82 12.7747L110.786 12.7917L110.756 12.8113L110.711 12.8575L110.696 12.8843L110.685 12.9112L110.68 12.9403V12.9697L110.687 13.0013L110.696 13.0329L110.715 13.0647L110.739 13.0963L110.786 13.1425L110.843 13.1792L110.91 13.2108L110.981 13.2377L111.056 13.2619L111.134 13.2887L111.213 13.318L111.289 13.3498L111.36 13.391L111.426 13.4422L111.485 13.5031L111.535 13.5786L111.573 13.6712L111.597 13.781L111.606 13.9124L111.597 14.0659L111.58 14.1804L111.551 14.2803L111.513 14.3729L111.466 14.4533L111.412 14.5239L111.35 14.5848L111.284 14.6384L111.21 14.6847L111.134 14.7212L111.056 14.753L110.976 14.7772L110.893 14.7968L110.812 14.8114L110.734 14.8188L110.656 14.8237L110.583 14.826H110.481L110.386 14.8237H110.303L110.225 14.8211L110.154 14.8188L110.09 14.8137L110.033 14.809L109.979 14.8017L109.929 14.7968L109.884 14.787L109.839 14.7798L109.799 14.7675L109.758 14.7579L109.721 14.7433L109.683 14.7286L109.642 14.7139L109.749 14.1756L109.77 14.1804L109.796 14.1877L109.829 14.1975L109.87 14.2072L109.912 14.217L109.96 14.2268L110.012 14.2388L110.069 14.2487L110.128 14.2584L110.19 14.2681L110.253 14.2756L110.32 14.2828L110.389 14.2852L110.457 14.2876H110.526L110.595 14.2852L110.663 14.2707L110.718 14.251L110.76 14.2242L110.794 14.1902L110.817 14.1561L110.836 14.117L110.848 14.0781L110.857 14.0416L110.862 13.9709L110.841 13.9101L110.801 13.8613L110.741 13.8198L110.67 13.7833L110.587 13.7468L110.495 13.7126L110.403 13.6738L110.308 13.6299L110.218 13.5786L110.135 13.5153L110.059 13.4398L110 13.3472L109.957 13.2377L109.936 13.1059L109.938 12.9501L109.95 12.8551L109.967 12.765L109.991 12.6822L110.019 12.6042L110.057 12.5311L110.1 12.4677L110.149 12.4068L110.208 12.3533L110.277 12.3069L110.353 12.268L110.438 12.2314L110.533 12.2047L110.64 12.1827L110.756 12.1657L110.883 12.1559L111.023 12.1534H111.111L111.191 12.1559L111.265 12.1583L111.331 12.1608L111.39 12.1657L111.445 12.1706L111.492 12.1754L111.535 12.1803L111.575 12.1852L111.608 12.1924L111.639 12.1973L111.668 12.2022L111.691 12.207L111.713 12.2094L111.734 12.2145L111.753 12.2169L111.632 12.7675" fill="#FFFFFE"/>
<path id="Fill 20" fill-rule="evenodd" clip-rule="evenodd" d="M112.193 11.6151H112.85L112.752 12.2046H113.148L113.063 12.7552L112.646 12.7431L112.418 14.1024L112.416 14.1512L112.428 14.1926L112.452 14.2242L112.482 14.251L112.525 14.268L112.572 14.2827L112.625 14.2924L112.681 14.2973L112.733 14.2949L112.781 14.29L112.824 14.2827L112.861 14.2729L112.892 14.2633L112.913 14.2559L112.928 14.251L112.932 14.2487L112.85 14.7017L112.833 14.7139L112.816 14.7237L112.8 14.7333L112.783 14.7433L112.767 14.7505L112.748 14.7578L112.726 14.7652L112.705 14.7724L112.681 14.7798L112.658 14.7845L112.629 14.7894L112.601 14.7943L112.57 14.7991L112.535 14.804L112.497 14.8089L112.456 14.8137H112.276L112.182 14.8065L112.099 14.7968L112.023 14.7821L111.959 14.7652L111.905 14.7433L111.859 14.7188L111.819 14.6896L111.788 14.6579L111.765 14.6238L111.748 14.5824L111.736 14.5409L111.729 14.4947L111.727 14.4435V14.3898L111.734 14.334L111.741 14.2729L112.193 11.6151" fill="#FFFFFE"/>
<path id="Fill 22" fill-rule="evenodd" clip-rule="evenodd" d="M113.671 13.6738L113.664 13.7151L113.662 13.7589L113.667 13.8052L113.676 13.8515L113.693 13.8979L113.712 13.9417L113.738 13.9879L113.766 14.0293L113.799 14.0708L113.835 14.1073L113.873 14.1438L113.915 14.1731L113.958 14.2L114.005 14.2219L114.053 14.2388L114.1 14.2487L114.162 14.2584L114.221 14.2656L114.283 14.273L114.344 14.2779L114.406 14.2803H114.47L114.531 14.2779L114.595 14.273L114.659 14.2633L114.723 14.251L114.789 14.2365L114.853 14.2145L114.92 14.1877L114.988 14.1584L115.055 14.1196L115.123 14.0781L115.028 14.6774L114.991 14.6969L114.953 14.7165L114.915 14.731L114.879 14.7456L114.844 14.7579L114.806 14.77L114.768 14.7798L114.728 14.787L114.685 14.7944L114.638 14.7991L114.588 14.804L114.533 14.809L114.472 14.8114H114.408L114.335 14.8137H114.256L114.14 14.8114L114.022 14.7991L113.904 14.7821L113.785 14.753L113.669 14.7165L113.558 14.67L113.451 14.6093L113.352 14.5386L113.259 14.4558L113.179 14.3559L113.11 14.2438L113.053 14.1147L113.013 13.9709L112.987 13.8077L112.98 13.6273L112.992 13.4275L113.001 13.3498L113.015 13.2596L113.034 13.1645L113.06 13.0621L113.096 12.9575L113.138 12.8526L113.193 12.7455L113.259 12.6431L113.335 12.5457L113.427 12.4531L113.532 12.3703L113.65 12.2973L113.787 12.2363L113.941 12.1924L114.112 12.1632L114.304 12.1534L114.396 12.1559L114.493 12.1657L114.59 12.1827L114.687 12.207L114.782 12.2436L114.875 12.2875L114.96 12.3459L115.038 12.4141L115.109 12.497L115.168 12.5945L115.216 12.7066L115.249 12.8356L115.268 12.9817L115.27 13.1474L115.254 13.3326L115.218 13.5373L115.206 13.6858H113.48L113.588 13.2059H114.626L114.631 13.145L114.628 13.0866L114.624 13.0329L114.614 12.9843L114.597 12.9379L114.581 12.8965L114.557 12.86L114.533 12.8259L114.505 12.7966L114.474 12.7722L114.439 12.7503L114.403 12.7308L114.365 12.7163L114.327 12.7066L114.287 12.6992L114.245 12.6943L114.2 12.6968L114.157 12.704L114.117 12.7138L114.076 12.7284L114.036 12.7479L114.001 12.7699L113.965 12.7966L113.934 12.8259L113.904 12.86L113.875 12.8965L113.849 12.9354L113.828 12.977L113.806 13.0208L113.79 13.0696L113.776 13.1182L113.766 13.1693L113.671 13.6738" fill="#FFFFFE"/>
<path id="Fill 24" fill-rule="evenodd" clip-rule="evenodd" d="M119.32 12.3508L119.29 12.3338L119.259 12.3192L119.226 12.302L119.19 12.285L119.155 12.2704L119.114 12.2557L119.074 12.2412L119.031 12.2266L118.986 12.2145L118.941 12.2047L118.892 12.1948L118.842 12.1876L118.787 12.1827L118.733 12.1778H118.558L118.496 12.1827L118.432 12.1901L118.366 12.2022L118.299 12.2217L118.233 12.2485L118.167 12.2826L118.1 12.3264L118.037 12.3801L117.975 12.4434L117.916 12.5213L117.859 12.6115L117.807 12.7187L117.757 12.8405L117.712 12.9769L117.674 13.1328L117.66 13.2205L117.65 13.3058L117.646 13.391L117.648 13.474L117.655 13.5567L117.672 13.6347L117.693 13.7077L117.719 13.781L117.755 13.8466L117.797 13.9101L117.847 13.966L117.904 14.0172L117.968 14.061L118.041 14.0977L118.122 14.1293L118.212 14.1512L118.243 14.1584L118.278 14.1658L118.321 14.1707L118.368 14.1756L118.42 14.1804H118.534L118.593 14.1756L118.655 14.1682L118.716 14.1561L118.775 14.1391L118.835 14.1196L118.894 14.0928L118.948 14.061L118.998 14.0221L119.046 13.9782L118.939 14.6287L118.925 14.6409L118.911 14.6554L118.892 14.6726L118.87 14.6872L118.844 14.7067L118.811 14.7237L118.773 14.7407L118.731 14.7553L118.676 14.7724L118.614 14.7846L118.543 14.7944L118.46 14.804L118.368 14.8089L118.262 14.8114L118.141 14.8089L118.008 14.8017L117.899 14.7895L117.79 14.7652L117.681 14.7286L117.572 14.6798L117.468 14.6214L117.369 14.5482L117.274 14.4631L117.186 14.3656L117.108 14.2559L117.042 14.1342L116.985 13.9977L116.942 13.8491L116.914 13.6858L116.904 13.5129L116.909 13.3229L116.935 13.1207L116.954 13.0208L116.975 12.9233L116.999 12.8283L117.023 12.7382L117.049 12.6529L117.08 12.5676L117.11 12.4873L117.143 12.4117L117.179 12.3361L117.215 12.2655L117.255 12.1973L117.297 12.134L117.34 12.0731L117.388 12.0146L117.435 11.961L117.485 11.9099L117.539 11.8611L117.594 11.8148L117.65 11.7734L117.71 11.7345L117.774 11.6978L117.838 11.6662L117.904 11.6369L117.973 11.6101L118.046 11.5859L118.119 11.5664L118.195 11.5492L118.276 11.5346L118.356 11.5224L118.442 11.5127L118.527 11.5078L118.617 11.5055L118.693 11.5078L118.766 11.5127L118.837 11.5199L118.908 11.5297L118.974 11.5395L119.038 11.5541L119.1 11.5664L119.157 11.581L119.211 11.5955L119.259 11.6101L119.304 11.6248L119.342 11.6394L119.375 11.6516L119.403 11.6613L119.425 11.6711L119.439 11.676L119.32 12.3508" fill="#FFFFFE"/>
<path id="Fill 26" fill-rule="evenodd" clip-rule="evenodd" d="M125.152 14.8138H124.496L124.543 14.5435V14.519L124.505 14.5678L124.465 14.6116L124.425 14.6507L124.382 14.6848L124.339 14.7165L124.297 14.7433L124.254 14.7653L124.209 14.7871L124.164 14.8041L124.074 14.8286L124.027 14.8358L123.979 14.8432L123.934 14.848L123.887 14.8505H123.84L123.717 14.8406L123.603 14.8138L123.499 14.7725L123.404 14.7165L123.319 14.6458L123.243 14.563L123.176 14.4728L123.12 14.3705L123.072 14.2608L123.034 14.1465L123.008 14.027L122.989 13.9028L122.982 13.7785L122.985 13.6518L122.996 13.5276L123.018 13.4033L123.053 13.2596L123.096 13.1232L123.146 12.9989L123.205 12.8819L123.266 12.7723L123.337 12.6749L123.411 12.5872L123.489 12.5068L123.572 12.4361L123.66 12.3752L123.75 12.3217L123.84 12.2802L123.934 12.2461L124.029 12.2242L124.124 12.2095L124.221 12.2047L124.29 12.207L124.356 12.2145L124.418 12.2266L124.474 12.2437L124.529 12.2631L124.576 12.2851L124.624 12.3119L124.666 12.3386L124.704 12.3679L124.74 12.3996L124.77 12.4312L124.799 12.463L124.823 12.4947L124.844 12.5263L124.863 12.5556L124.877 12.5847L125.043 11.6273H125.687L125.152 14.8138" fill="#FFFFFE"/>
<path id="Fill 28" fill-rule="evenodd" clip-rule="evenodd" d="M124.079 14.2242L124.145 14.2195L124.207 14.2049L124.264 14.1877L124.318 14.1609L124.368 14.1316L124.415 14.0951L124.46 14.0538L124.5 14.0099L124.536 13.9612L124.569 13.9076L124.6 13.8516L124.626 13.793L124.65 13.7323L124.669 13.6689L124.685 13.6031L124.697 13.5373L124.709 13.4691L124.716 13.3984V13.3326L124.714 13.2645L124.707 13.2011L124.697 13.1402L124.68 13.0817L124.662 13.0256L124.638 12.977L124.609 12.9307L124.579 12.8917L124.543 12.8575L124.503 12.8284L124.46 12.8088L124.415 12.7966L124.365 12.7917L124.301 12.7966L124.242 12.8065L124.188 12.8259L124.133 12.8503L124.086 12.8819L124.039 12.921L123.998 12.9624L123.958 13.0086L123.922 13.0621L123.889 13.1182L123.858 13.1767L123.832 13.24L123.809 13.3058L123.79 13.3716L123.771 13.4423L123.757 13.513L123.745 13.6202L123.75 13.737L123.766 13.8565L123.797 13.9709L123.844 14.0709L123.906 14.1512L123.984 14.2049L124.079 14.2242" fill="#F1AD3D"/>
<path id="Fill 29" fill-rule="evenodd" clip-rule="evenodd" d="M109.533 14.273L109.439 14.8138H108.842L108.858 14.7139L108.87 14.6239L108.88 14.5558L108.889 14.519L108.856 14.5581L108.818 14.5971L108.773 14.6336L108.724 14.6678L108.667 14.7018L108.607 14.7311L108.546 14.7602L108.482 14.7846L108.413 14.8066L108.345 14.8237L108.276 14.8383L108.205 14.848L108.136 14.8529L108.067 14.8553L108.001 14.848L107.937 14.8383L107.854 14.8164L107.778 14.7921L107.712 14.7602L107.653 14.7237L107.601 14.6848L107.553 14.6409L107.516 14.5946L107.482 14.5459L107.454 14.4948L107.43 14.4411L107.411 14.3876L107.397 14.334L107.388 14.2779L107.38 14.2219L107.376 14.1683V14.1147L107.383 14.0197L107.397 13.9295L107.421 13.8442L107.451 13.7614L107.489 13.6835L107.532 13.6128L107.582 13.5447L107.639 13.4837L107.698 13.4276L107.764 13.3765L107.833 13.3303L107.904 13.2912L107.98 13.2572L108.058 13.2304L108.138 13.2084L108.221 13.1938H108.226L108.238 13.1913L108.255 13.1889L108.281 13.1865L108.309 13.1816L108.342 13.1793L108.378 13.1742L108.418 13.1693L108.458 13.1646L108.498 13.1597L108.541 13.1573L108.579 13.1524L108.617 13.15L108.652 13.1474L108.686 13.1451H108.766L108.823 13.1474L108.875 13.15H108.927L108.97 13.1524L109.003 13.1548L109.027 13.1573H109.034L109.039 13.1402L109.053 13.0963L109.065 13.0452L109.069 12.9989L109.06 12.9453L109.039 12.8965L109.01 12.8527L108.972 12.8161L108.927 12.7845L108.877 12.7626L108.821 12.7479L108.759 12.7431L108.693 12.7407L108.622 12.7382H108.548L108.472 12.7407L108.394 12.7456L108.318 12.7528L108.243 12.7602L108.169 12.77L108.098 12.7796L108.03 12.7918L107.968 12.804L107.911 12.8161L107.859 12.8309L107.816 12.8454L107.783 12.8625L107.757 12.877L107.925 12.29L107.977 12.268L108.03 12.2486L108.086 12.2314L108.143 12.2193L108.2 12.207L108.262 12.1974L108.323 12.1877L108.387 12.1828L108.454 12.1779L108.522 12.1754L108.593 12.173H108.821L108.904 12.1754L108.986 12.1779L109.053 12.1828L109.124 12.1949L109.197 12.2121L109.273 12.2339L109.346 12.2631L109.417 12.2973L109.489 12.3386L109.555 12.3849L109.614 12.4386L109.666 12.497L109.714 12.5628L109.749 12.6359L109.773 12.7139L109.787 12.7967V12.8893L109.773 12.9867L109.533 14.273" fill="#FFFFFE"/>
<path id="Fill 31" fill-rule="evenodd" clip-rule="evenodd" d="M108.963 13.6371L108.96 13.625L108.951 13.6127L108.937 13.6054L108.913 13.6005L108.887 13.5957L108.856 13.5933H108.785L108.747 13.5957L108.707 13.6005L108.669 13.6054L108.631 13.6103L108.596 13.6151L108.562 13.6225L108.534 13.6299L108.508 13.6371L108.491 13.6419L108.472 13.6492L108.446 13.659L108.42 13.6712L108.389 13.6858L108.359 13.7029L108.326 13.7199L108.295 13.7394L108.262 13.7638L108.231 13.788L108.202 13.8175L108.176 13.8466L108.153 13.8783L108.136 13.9124L108.122 13.9514L108.115 13.9904L108.112 14.0731L108.124 14.139L108.148 14.1877L108.179 14.2242L108.214 14.2487L108.255 14.2633L108.292 14.2706L108.33 14.2729L108.401 14.2706L108.465 14.2633L108.527 14.2535L108.581 14.2388L108.629 14.2219L108.674 14.1999L108.714 14.178L108.749 14.1512L108.78 14.1268L108.809 14.0976L108.832 14.0708L108.851 14.0415L108.868 14.0124L108.882 13.9831L108.894 13.9563L108.901 13.9294L108.92 13.8589L108.937 13.7784L108.951 13.7005L108.963 13.6371" fill="#D82332"/>
<path id="Fill 32" fill-rule="evenodd" clip-rule="evenodd" d="M104.55 14.8137H103.906L104.443 11.6151H105.564L105.67 13.5129L106.445 11.6151H107.615L107.065 14.8137H106.421L106.829 12.4239H106.803L105.839 14.8137H105.111L105.107 14.7139L105.09 14.4482L105.069 14.0708L105.021 13.201L105 12.8185L104.983 12.5408L104.979 12.4239H104.943L104.55 14.8137" fill="#FFFFFE"/>
<path id="Fill 34" fill-rule="evenodd" clip-rule="evenodd" d="M121.289 14.273L121.192 14.8138H120.597L120.602 14.7139L120.604 14.6262V14.5606L120.609 14.5313L120.578 14.5678L120.543 14.6043L120.5 14.6385L120.453 14.6727L120.403 14.7043L120.346 14.7334L120.287 14.7627L120.228 14.7871L120.164 14.8066L120.097 14.826L120.031 14.8383L119.965 14.848L119.896 14.8529L119.83 14.8553L119.766 14.848L119.702 14.8383L119.617 14.8164L119.541 14.7921L119.474 14.7602L119.413 14.7237L119.361 14.6848L119.316 14.6409L119.278 14.5946L119.245 14.5459L119.216 14.4948L119.195 14.4411L119.176 14.3876L119.164 14.334L119.155 14.2779L119.148 14.2219L119.143 14.1683V14.1147L119.148 14.0197L119.162 13.9295L119.183 13.8442L119.214 13.7614L119.249 13.6835L119.294 13.6128L119.344 13.5447L119.399 13.4837L119.46 13.4276L119.524 13.3765L119.593 13.3303L119.666 13.2912L119.74 13.2572L119.818 13.2304L119.896 13.2084L119.977 13.1938H119.981L119.993 13.1913L120.01 13.1889L120.033 13.1865L120.064 13.1816L120.097 13.1793L120.133 13.1742L120.171 13.1693L120.211 13.1646L120.254 13.1597L120.294 13.1573L120.334 13.1524L120.372 13.15L120.405 13.1474L120.438 13.1451H120.521L120.578 13.1474L120.633 13.15H120.685L120.73 13.1524L120.768 13.1548L120.789 13.1573H120.799L120.803 13.1402L120.81 13.0963L120.817 13.0452L120.822 12.9989L120.813 12.9453L120.794 12.8965L120.763 12.8527L120.727 12.8161L120.685 12.7845L120.635 12.7626L120.583 12.7479L120.526 12.7431L120.46 12.7407L120.389 12.7382H120.315L120.239 12.7407L120.161 12.7456L120.086 12.7528L120.01 12.7602L119.936 12.77L119.865 12.7796L119.797 12.7918L119.735 12.804L119.678 12.8161L119.626 12.8309L119.583 12.8454L119.55 12.8625L119.524 12.877L119.69 12.29L119.742 12.268L119.797 12.2486L119.851 12.2314L119.908 12.2193L119.967 12.207L120.026 12.1974L120.088 12.1877L120.152 12.1828L120.218 12.1779L120.287 12.1754L120.356 12.173H120.578L120.659 12.1754L120.739 12.1779L120.806 12.1828L120.877 12.1949L120.95 12.2121L121.026 12.2339L121.099 12.2631L121.173 12.2973L121.244 12.3386L121.31 12.3849L121.369 12.4386L121.424 12.497L121.471 12.5628L121.507 12.6359L121.533 12.7139L121.549 12.7967V12.8893L121.537 12.9867L121.289 14.273" fill="#FFFFFE"/>
<path id="Fill 35" fill-rule="evenodd" clip-rule="evenodd" d="M121.192 14.8309L121.206 14.8163L121.303 14.2755L121.275 14.2706L121.177 14.8114L121.192 14.7968V14.8309L121.203 14.8285L121.206 14.8163L121.192 14.8309" fill="#FFFFFE"/>
<path id="Fill 36" fill-rule="evenodd" clip-rule="evenodd" d="M120.583 14.8138L120.597 14.8309H121.192V14.7969H120.597L120.611 14.8138H120.583L120.581 14.8309H120.597L120.583 14.8138" fill="#FFFFFE"/>
<path id="Fill 37" fill-rule="evenodd" clip-rule="evenodd" d="M120.621 14.541L120.599 14.5216L120.59 14.5606L120.588 14.6262V14.7139L120.583 14.8138H120.611L120.616 14.7139L120.621 14.6262L120.618 14.5606V14.541L120.597 14.5216L120.621 14.541" fill="#FFFFFE"/>
<path id="Fill 38" fill-rule="evenodd" clip-rule="evenodd" d="M119.699 14.8529V14.8529L119.766 14.8625L119.83 14.8699L119.896 14.8674L119.965 14.8625L120.033 14.8529L120.1 14.8406L120.166 14.8211L120.232 14.8018L120.292 14.7773L120.353 14.7481L120.41 14.7188L120.46 14.6848L120.51 14.6507L120.552 14.6165L120.59 14.5775L120.621 14.541L120.597 14.5216L120.566 14.5581L120.533 14.5923L120.491 14.6262L120.446 14.6604L120.396 14.6897L120.339 14.7188L120.282 14.7481L120.223 14.7725L120.161 14.7921L120.095 14.8115L120.029 14.8237L119.965 14.8334L119.896 14.8383L119.83 14.8406L119.766 14.8334L119.704 14.8237L119.699 14.8529" fill="#FFFFFE"/>
<path id="Fill 39" fill-rule="evenodd" clip-rule="evenodd" d="M119.126 14.1147V14.1147L119.129 14.1683L119.133 14.2219L119.14 14.2804L119.15 14.3364L119.162 14.3899L119.181 14.446L119.202 14.502L119.233 14.5532L119.266 14.6043L119.304 14.6507L119.351 14.6969L119.406 14.736L119.467 14.7749L119.536 14.8066L119.614 14.8309L119.699 14.8529L119.704 14.8237L119.619 14.8018L119.545 14.7773L119.482 14.7457L119.42 14.7116L119.37 14.6727L119.328 14.6311L119.29 14.5848L119.256 14.5386L119.23 14.4874L119.209 14.4363L119.19 14.3851L119.178 14.3315L119.169 14.2756L119.162 14.2219L119.157 14.1683L119.159 14.1147H119.126" fill="#FFFFFE"/>
<path id="Fill 40" fill-rule="evenodd" clip-rule="evenodd" d="M119.977 13.1792V13.1792L119.894 13.1938L119.813 13.2157L119.735 13.2424L119.659 13.2765L119.586 13.3155L119.515 13.3642L119.451 13.4155L119.389 13.474L119.332 13.5347L119.282 13.6031L119.235 13.6761L119.2 13.7565L119.169 13.8394L119.148 13.927L119.133 14.0196L119.126 14.1147H119.159L119.162 14.0196L119.176 13.9319L119.197 13.8491L119.228 13.7663L119.264 13.6907L119.306 13.6226L119.356 13.5543L119.408 13.4934L119.47 13.4398L119.534 13.3887L119.6 13.3448L119.673 13.3057L119.744 13.2717L119.823 13.2449L119.898 13.2229L119.977 13.2084V13.1792" fill="#FFFFFE"/>
<path id="Fill 41" fill-rule="evenodd" clip-rule="evenodd" d="M120.465 13.1281H120.438L120.405 13.1328L120.372 13.1354L120.334 13.1378L120.294 13.1425L120.254 13.1451L120.211 13.15L120.171 13.1548L120.133 13.1597L120.097 13.1646L120.064 13.167L120.033 13.1719L120.01 13.1743L119.991 13.1767L119.981 13.1793H119.977V13.2084H119.981L119.995 13.206L120.01 13.2035L120.033 13.2011L120.064 13.1962L120.097 13.1939L120.133 13.189L120.171 13.1841L120.211 13.1793L120.254 13.1743L120.294 13.1719L120.334 13.167L120.372 13.1646L120.405 13.1621H120.465V13.1281" fill="#FFFFFE"/>
<path id="Fill 42" fill-rule="evenodd" clip-rule="evenodd" d="M120.784 13.1548L120.799 13.1425H120.789L120.768 13.1402L120.73 13.1378L120.685 13.1329H120.578L120.521 13.1281H120.465V13.1621H120.578L120.633 13.167H120.73L120.768 13.1694L120.789 13.1719H120.799L120.813 13.1597L120.799 13.1719L120.81 13.1743L120.813 13.1597L120.784 13.1548" fill="#FFFFFE"/>
<path id="Fill 43" fill-rule="evenodd" clip-rule="evenodd" d="M120.808 12.9989H120.806L120.803 13.0452L120.796 13.0938L120.789 13.1377L120.784 13.1547L120.813 13.1596L120.817 13.1425L120.825 13.0987L120.832 13.0452L120.839 12.9989H120.808" fill="#FFFFFE"/>
<path id="Fill 44" fill-rule="evenodd" clip-rule="evenodd" d="M120.526 12.7577V12.7601L120.58 12.7626L120.63 12.7772L120.678 12.7991L120.718 12.8284L120.751 12.8624L120.779 12.9038L120.798 12.9477L120.808 12.9989H120.836L120.827 12.9429L120.808 12.8893L120.775 12.843L120.737 12.804L120.692 12.7699L120.64 12.7479L120.585 12.7333L120.526 12.726V12.7577" fill="#FFFFFE"/>
<path id="Fill 45" fill-rule="evenodd" clip-rule="evenodd" d="M119.51 12.8747L119.534 12.8893L119.557 12.877L119.588 12.86L119.628 12.8454L119.68 12.8308L119.737 12.8186L119.799 12.8065L119.868 12.7942L119.936 12.7845L120.01 12.7747L120.086 12.7675L120.161 12.7601L120.239 12.7552H120.46L120.526 12.7577V12.7284L120.46 12.726L120.389 12.7212H120.315L120.239 12.726L120.161 12.7309L120.086 12.7382L120.01 12.7456L119.936 12.7552L119.863 12.765L119.794 12.7772L119.733 12.7894L119.676 12.8016L119.624 12.8161L119.579 12.8308L119.543 12.8479L119.515 12.8649L119.538 12.8795L119.51 12.8747" fill="#FFFFFE"/>
<path id="Fill 46" fill-rule="evenodd" clip-rule="evenodd" d="M119.685 12.2754L119.676 12.2875L119.51 12.8747L119.538 12.8795L119.704 12.2924L119.695 12.3045L119.685 12.2754L119.678 12.2777L119.676 12.2875L119.685 12.2754" fill="#FFFFFE"/>
<path id="Fill 47" fill-rule="evenodd" clip-rule="evenodd" d="M120.739 12.1632V12.1632L120.659 12.1583L120.578 12.1559H120.356L120.287 12.1608L120.218 12.1632L120.152 12.1681L120.088 12.1729L120.024 12.1827L119.965 12.1924L119.906 12.2046L119.849 12.2169L119.792 12.2338L119.737 12.2533L119.685 12.2753L119.695 12.3045L119.747 12.2826L119.801 12.2631L119.853 12.2461L119.91 12.2338L119.97 12.2217L120.029 12.212L120.088 12.2022L120.152 12.1973L120.218 12.1924L120.287 12.1901H120.578L120.659 12.1924H120.739V12.1632" fill="#FFFFFE"/>
<path id="Fill 48" fill-rule="evenodd" clip-rule="evenodd" d="M121.552 12.989V12.989L121.564 12.8892V12.7966L121.547 12.7113L121.521 12.6309L121.483 12.5555L121.436 12.4872L121.379 12.4264L121.32 12.3727L121.251 12.3264L121.18 12.2825L121.104 12.2485L121.031 12.2192L120.952 12.1973L120.879 12.1802L120.806 12.1681L120.739 12.1632V12.1924L120.806 12.1973L120.874 12.2094L120.948 12.2265L121.021 12.2485L121.095 12.2776L121.166 12.3118L121.237 12.3508L121.301 12.3971L121.36 12.4507L121.412 12.5067L121.459 12.5699L121.492 12.6408L121.518 12.7162L121.535 12.7966V12.8892L121.523 12.9843L121.552 12.989" fill="#FFFFFE"/>
<path id="Fill 49" fill-rule="evenodd" clip-rule="evenodd" d="M121.303 14.2756V14.2756L121.552 12.9891L121.523 12.9844L121.275 14.2707L121.303 14.2756" fill="#FFFFFE"/>
<path id="Fill 50" fill-rule="evenodd" clip-rule="evenodd" d="M120.715 13.6371L120.711 13.6226L120.701 13.6103L120.685 13.6031L120.661 13.5957L120.635 13.5933L120.604 13.5908H120.569L120.533 13.5933L120.495 13.5982L120.457 13.6031L120.419 13.6078L120.384 13.6127L120.348 13.6201L120.317 13.625L120.287 13.6322L120.263 13.6371L120.246 13.6396L120.228 13.6469L120.204 13.6542L120.178 13.6638L120.147 13.6785L120.119 13.6931L120.085 13.7103L120.024 13.7541L119.993 13.781L119.967 13.8077L119.941 13.8394L119.92 13.8733L119.903 13.9101L119.889 13.9489L119.882 13.9904L119.879 14.0731L119.891 14.1391L119.91 14.1877L119.939 14.2242L119.974 14.2487L120.014 14.2633L120.055 14.2706L120.095 14.273L120.166 14.2706L120.232 14.2633L120.294 14.251L120.348 14.234L120.4 14.2145L120.446 14.1926L120.488 14.1682L120.526 14.1391L120.559 14.1121L120.587 14.0805L120.614 14.0512L120.635 14.0196L120.651 13.9904L120.663 13.9612L120.673 13.9319L120.68 13.9052L120.689 13.8368L120.701 13.7663L120.711 13.698L120.715 13.6371" fill="#F1AD3D"/>
<path id="Fill 51" fill-rule="evenodd" clip-rule="evenodd" d="M125.595 14.4802L125.599 14.4241L125.618 14.3583L125.652 14.2998L125.692 14.2488L125.742 14.2072L125.798 14.1781L125.86 14.1585L125.926 14.1512L125.993 14.1585L126.054 14.1781L126.111 14.2072L126.161 14.2488L126.201 14.2998L126.234 14.3583L126.253 14.4241L126.258 14.4802H126.187L126.184 14.4363L126.17 14.3827L126.147 14.334L126.116 14.2925L126.078 14.2584L126.033 14.2341L125.981 14.217L125.926 14.212L125.872 14.217L125.82 14.2341L125.775 14.2584L125.737 14.2925L125.706 14.334L125.682 14.3827L125.668 14.4363L125.663 14.4802H125.595" fill="#FFFFFE"/>
<path id="Fill 52" fill-rule="evenodd" clip-rule="evenodd" d="M125.808 14.4801V14.334H125.938L125.967 14.3363L125.993 14.3412L126.012 14.3486L126.028 14.3582L126.04 14.3729L126.05 14.3875L126.054 14.4045L126.057 14.4216L126.054 14.4435L126.05 14.4605L126.043 14.4751L126.038 14.4801H125.938L125.948 14.4777L125.964 14.4751L125.979 14.4703L125.99 14.4654L126 14.4582L126.005 14.4509L126.009 14.4386V14.4216L126.007 14.4094L126.002 14.3998L125.995 14.3947L125.988 14.3898L125.976 14.3875L125.964 14.3851H125.867V14.4801H125.808" fill="#FFFFFE"/>
<path id="Fill 53" fill-rule="evenodd" clip-rule="evenodd" d="M125.595 14.4801L125.592 14.4947L125.599 14.5654L125.618 14.631L125.651 14.6896L125.692 14.7384L125.742 14.7798L125.798 14.8114L125.86 14.8308L125.926 14.8382L125.993 14.8308L126.054 14.8114L126.111 14.7798L126.161 14.7384L126.201 14.6896L126.234 14.631L126.253 14.5654L126.26 14.4947L126.258 14.4801H126.187L126.189 14.4947L126.184 14.5531L126.17 14.6068L126.147 14.653L126.116 14.6944L126.078 14.7285L126.033 14.7553L125.981 14.7724L125.926 14.7772L125.872 14.7724L125.82 14.7553L125.775 14.7285L125.737 14.6944L125.706 14.653L125.682 14.6068L125.668 14.5531L125.663 14.4947V14.4801H125.595" fill="#FFFFFE"/>
<path id="Fill 54" fill-rule="evenodd" clip-rule="evenodd" d="M125.808 14.4801V14.6287H125.867V14.5069H125.926L125.997 14.6287H126.045L125.974 14.5069H125.99L126.007 14.5019L126.021 14.497L126.033 14.4873L126.038 14.4801H125.938L125.926 14.4824H125.867V14.4801H125.808" fill="#FFFFFE"/>
<path id="Fill 56" fill-rule="evenodd" clip-rule="evenodd" d="M121.466 14.8138H122.134L122.374 13.4276L122.383 13.374L122.397 13.3204L122.411 13.2668L122.43 13.2133L122.454 13.1596L122.483 13.1086L122.513 13.0598L122.551 13.0135L122.594 12.9721L122.641 12.9331L122.696 12.8965L122.757 12.8673L122.826 12.843L122.902 12.8235L122.985 12.8088L123.077 12.804H123.136L123.243 12.1779L123.176 12.1828L123.112 12.1901L123.053 12.2022L122.996 12.2193L122.944 12.2387L122.895 12.2631L122.847 12.29L122.802 12.3192L122.76 12.3533L122.719 12.3873L122.644 12.4654L122.608 12.5068L122.573 12.5531L122.537 12.5968L122.504 12.6456L122.575 12.2047H121.909L121.466 14.8138" fill="#FFFFFE"/>
<path id="Fill 58" fill-rule="evenodd" clip-rule="evenodd" d="M115.194 14.8138H115.874L116.101 13.4276L116.111 13.374L116.135 13.2717L116.151 13.223L116.17 13.1742L116.194 13.128L116.222 13.0841L116.255 13.0428L116.293 13.0061L116.336 12.9698L116.388 12.9404L116.445 12.9136L116.511 12.8917L116.585 12.8722L116.665 12.86L116.757 12.8526H116.765L116.774 12.8551L116.786 12.8575H116.798L116.81 12.86L116.819 12.8624L116.826 12.8649H116.829L116.838 12.8259L116.848 12.7821L116.859 12.7284L116.876 12.6651L116.893 12.5968L116.935 12.4605L116.954 12.4142L116.978 12.3679L117.002 12.3217L117.025 12.2802L117.047 12.2436L117.063 12.2145L117.075 12.1973L117.08 12.1901H117.077L117.068 12.1877L117.056 12.1852L117.039 12.1828H117.023L117.004 12.1803L116.987 12.1779H116.971L116.897 12.1828L116.831 12.1901L116.769 12.2022L116.713 12.2169L116.658 12.2363L116.608 12.2607L116.563 12.2851L116.521 12.3143L116.48 12.3459L116.443 12.3824L116.407 12.4191L116.371 12.4605L116.336 12.5019L116.303 12.5482L116.267 12.5968L116.232 12.6456L116.317 12.2047H115.637L115.194 14.8138" fill="#FFFFFE"/>
<path id="Fill 60" fill-rule="evenodd" clip-rule="evenodd" d="M125.6 17.3768V17.3669L125.619 17.3036L125.652 17.2477L125.692 17.1989L125.742 17.1599L125.799 17.1306L125.86 17.1137L125.926 17.1063L125.993 17.1137L126.054 17.1306L126.111 17.1599L126.161 17.1989L126.201 17.2477L126.234 17.3036L126.253 17.3669V17.3768H126.185L126.17 17.3256L126.147 17.2793L126.116 17.2378L126.078 17.2038L126.033 17.177L125.981 17.1599L125.926 17.1551L125.872 17.1599L125.82 17.177L125.775 17.2038L125.737 17.2378L125.706 17.2793L125.682 17.3256L125.668 17.3768H125.6" fill="#F1AD3D"/>
<path id="Fill 61" fill-rule="evenodd" clip-rule="evenodd" d="M125.808 17.3768V17.2915H125.967L125.993 17.2964L126.012 17.3013L126.028 17.3109L126.04 17.3232L126.05 17.3378L126.054 17.3549L126.057 17.3768H126.009V17.3646L126.007 17.3523L126.002 17.3427L125.995 17.3378L125.988 17.333L125.976 17.3304L125.964 17.3281H125.867V17.3768H125.808" fill="#F1AD3D"/>
<path id="Fill 62" fill-rule="evenodd" clip-rule="evenodd" d="M125.592 17.4304L125.6 17.3768H125.668V17.3792L125.664 17.4304H125.592" fill="#F1AD3D"/>
<path id="Fill 63" fill-rule="evenodd" clip-rule="evenodd" d="M125.808 17.4304V17.3768H125.867V17.4255H125.926L125.948 17.4206L125.964 17.4181L125.979 17.4133L125.99 17.4084L126 17.4011L126.005 17.3937L126.009 17.3816V17.3768H126.057L126.054 17.3937L126.05 17.4084L126.043 17.4206L126.033 17.4304H125.808" fill="#F1AD3D"/>
<path id="Fill 64" fill-rule="evenodd" clip-rule="evenodd" d="M126.189 17.4304L126.184 17.3792V17.3768H126.253L126.26 17.4304H126.189" fill="#F1AD3D"/>
<path id="Fill 65" fill-rule="evenodd" clip-rule="evenodd" d="M125.592 17.4304V17.4376L125.599 17.5083L125.618 17.5741L125.651 17.6326L125.692 17.6838L125.742 17.7252L125.798 17.7543L125.86 17.7739L125.926 17.7812L125.993 17.7739L126.054 17.7543L126.111 17.7252L126.161 17.6838L126.201 17.6326L126.234 17.5741L126.253 17.5083L126.26 17.4376V17.4304H126.189V17.4376L126.184 17.4961L126.17 17.5497L126.147 17.5961L126.116 17.6375L126.078 17.6716L126.033 17.6983L125.981 17.7154L125.926 17.7203L125.872 17.7154L125.82 17.6983L125.775 17.6716L125.737 17.6375L125.706 17.5961L125.682 17.5497L125.668 17.4961L125.663 17.4376V17.4304H125.592" fill="#F1AD3D"/>
<path id="Fill 66" fill-rule="evenodd" clip-rule="evenodd" d="M125.808 17.4304V17.5717H125.867V17.4499H125.926L125.997 17.5717H126.045L125.974 17.4499H125.99L126.007 17.445L126.021 17.4401L126.033 17.4304H125.808" fill="#F1AD3D"/>
</g>
</g>
<g id="dc copy">
<path id="Path_12" d="M182.018 24.5882C182.018 25.3529 181.406 26 180.682 26H143.992C143.268 26 142.656 25.3529 142.656 24.5882V1.41176C142.656 0.647059 143.268 0 143.992 0H180.682C181.406 0 182.018 0.647059 182.018 1.41176V24.5882Z" fill="#FCFCFC"/>
<path id="Path_13" d="M153.512 26H180.738C181.461 26 182.074 25.3529 182.074 24.5882V14.8823C179.401 16.5882 169.603 22.647 153.512 26Z" fill="#F58220"/>
<g id="Group_4">
<path id="Path_14" d="M162.866 10.9412C161.808 10.9412 160.917 11.8235 160.917 12.9412C160.917 14.1176 161.752 15 162.866 15C163.979 15 164.814 14.1176 164.814 13C164.814 11.8823 163.924 10.9412 162.866 10.9412Z" fill="url(#paint0_radial_0_37)"/>
<path id="Shape_6" fill-rule="evenodd" clip-rule="evenodd" d="M150.617 11.0588H151.675C152.844 11.0588 153.68 11.8235 153.68 13C153.68 13.5294 153.457 14.1177 153.011 14.4706C152.622 14.8235 152.232 14.9412 151.675 14.9412H150.617V11.0588ZM151.564 14.2353C152.065 14.2353 152.343 14.1765 152.566 13.9412C152.789 13.7059 152.956 13.353 152.956 12.8824C152.956 12.5294 152.789 12.1765 152.566 11.9412C152.288 11.7059 152.009 11.6471 151.564 11.6471H151.397V14.2353H151.564Z" fill="#001722"/>
<rect id="Rectangle" x="154.014" y="11.0588" width="0.723785" height="3.88235" fill="#001722"/>
<path id="Path_15" d="M156.463 12.5294C156.018 12.3529 155.907 12.2353 155.907 12.0588C155.907 11.8235 156.129 11.6471 156.463 11.6471C156.686 11.6471 156.853 11.7647 157.02 11.9412L157.41 11.4118C157.076 11.1176 156.742 11 156.352 11C155.684 11 155.183 11.4706 155.183 12.1176C155.183 12.6471 155.406 12.9412 156.074 13.1765C156.352 13.2941 156.519 13.3529 156.575 13.4118C156.742 13.5294 156.797 13.6471 156.797 13.8235C156.797 14.1176 156.575 14.3529 156.241 14.3529C155.907 14.3529 155.628 14.1765 155.461 13.8235L155.016 14.2941C155.35 14.8235 155.74 15.0588 156.296 15.0588C157.02 15.0588 157.577 14.5294 157.577 13.7647C157.521 13.1176 157.299 12.8235 156.463 12.5294Z" fill="#001722"/>
<path id="Path_16" d="M157.744 13C157.744 14.1176 158.579 15.0588 159.693 15.0588C160.027 15.0588 160.249 15 160.583 14.8235V13.9412C160.305 14.2353 160.027 14.3529 159.693 14.3529C158.969 14.3529 158.468 13.8235 158.468 13C158.468 12.2353 159.024 11.647 159.693 11.647C160.027 11.647 160.305 11.7647 160.583 12.0588V11.1765C160.249 11 160.027 10.9412 159.693 10.9412C158.635 10.9412 157.744 11.8823 157.744 13Z" fill="#001722"/>
<path id="Path_17" d="M166.429 13.6471L165.427 11.0588H164.647L166.206 15H166.596L168.211 11.0588H167.431L166.429 13.6471Z" fill="#001722"/>
<path id="Path_18" d="M168.545 14.9412H170.549V14.2941H169.269V13.2353H170.494V12.5882H169.269V11.7059H170.549V11.0588H168.545V14.9412Z" fill="#001722"/>
<path id="Shape_7" fill-rule="evenodd" clip-rule="evenodd" d="M172.108 11C172.888 11 173.389 11.4706 173.389 12.1765C173.389 12.7647 173.11 13.1765 172.609 13.2353L173.778 14.8824H172.888L171.885 13.2941H171.774V14.8824H171.05V11H172.108ZM171.718 12.8235H171.941C172.442 12.8235 172.665 12.5882 172.609 12.2353C172.609 11.8235 172.387 11.6471 171.941 11.6471H171.718V12.8235Z" fill="#001722"/>
<path id="Shape_8" fill-rule="evenodd" clip-rule="evenodd" d="M173.876 11.257C173.917 11.2842 173.949 11.3333 173.949 11.3823C173.949 11.3823 173.949 11.4558 173.878 11.5293L174.019 11.6764H173.878L173.737 11.5293V11.6764H173.667V11.2352H173.808V11.3823C173.878 11.3823 173.878 11.3823 173.878 11.3088C173.878 11.2842 173.878 11.2679 173.876 11.257ZM173.876 11.257C173.855 11.2434 173.831 11.2352 173.808 11.2352C173.855 11.2352 173.87 11.2352 173.876 11.257Z" fill="#231F20"/>
<path id="Shape_9" fill-rule="evenodd" clip-rule="evenodd" d="M173.5 11.4853C173.5 11.2647 173.641 11.1177 173.852 11.1177C174.063 11.1177 174.204 11.2647 174.204 11.4853C174.204 11.7059 174.063 11.853 173.852 11.853C173.641 11.853 173.5 11.7059 173.5 11.4853ZM173.57 11.4853C173.57 11.6324 173.711 11.7794 173.852 11.7794C174.063 11.7794 174.134 11.6324 174.134 11.4853C174.134 11.3383 173.993 11.1912 173.852 11.1912C173.711 11.1912 173.57 11.3383 173.57 11.4853Z" fill="#231F20"/>
</g>
</g>
<g id="ae copy">
<path id="Path_19" d="M229 24.5882C229 25.3529 228.387 26 227.662 26H190.92C190.195 26 189.582 25.3529 189.582 24.5882V1.41176C189.582 0.647059 190.195 0 190.92 0H227.662C228.387 0 229 0.647059 229 1.41176V24.5882Z" fill="#FCFCFC"/>
<g id="Group_5">
<path id="Path_20" d="M201.848 12.4117V12L201.681 12.4117H200.064L199.841 11.9411V12.4117H196.774L196.44 11.5294H195.826L195.436 12.4117H193.819V9.70585L194.99 6.94115H197.22L197.555 7.70585V6.94115H200.287L200.9 8.23527L201.458 6.88232H209.988C209.988 6.88232 210.434 6.88232 210.713 7.11762V6.88232H212.887V7.17644C212.887 7.17644 213.277 6.88232 213.835 6.88232C214.393 6.88232 217.626 6.88232 217.626 6.88232L217.961 7.70585V6.88232H220.414L220.86 7.70585V6.88232H223.202V12.3529H220.804L220.247 11.4117V12.3529H217.236L216.79 11.3529H216.232L215.842 12.3529H214.058C214.058 12.3529 213.389 12.3529 212.887 11.9411C212.887 12.1176 212.887 12.3529 212.887 12.3529H209.319C209.319 12.3529 209.319 11.2353 209.319 11.0588C209.319 10.8823 209.207 10.8823 209.207 10.8823H209.096V12.3529H201.848V12.4117Z" fill="white"/>
<path id="Path_21" d="M200.008 13.5883H204.747L205.416 14.4118L206.085 13.5883H209.709C209.709 13.5883 210.044 13.5883 210.378 13.7647V13.5883C210.378 13.5883 213.221 13.5883 213.612 13.5883C214.002 13.5883 214.392 13.8236 214.392 13.8236V13.5883H218.518V13.7647C218.518 13.7647 218.797 13.5883 219.187 13.5883C219.577 13.5883 221.863 13.5883 221.863 13.5883V13.7647C221.863 13.7647 222.198 13.5883 222.588 13.5883C222.923 13.5883 224.707 13.5883 224.707 13.5883V18.7647C224.707 18.7647 224.428 19.1177 223.87 19.1177H221.083V18.9412C221.083 18.9412 220.804 19.1177 220.414 19.1177C220.023 19.1177 212.998 19.1177 212.998 19.1177C212.998 19.1177 212.998 17.9412 212.998 17.7647C212.998 17.6471 212.943 17.5883 212.831 17.5883H212.72V19.0588H210.378V17.5883C210.378 17.5883 210.099 17.7059 209.709 17.7059C209.263 17.7059 208.873 17.7059 208.873 17.7059V19.0588H206.029L205.36 18.2353L204.691 19.0588H200.064V13.5883H200.008Z" fill="white"/>
<path id="Path_22" d="M214.895 14.4117H217.849V15.2353H215.787V15.9412H217.794V16.7059H215.787V17.4706H217.849V18.2941H214.895V14.4117Z" fill="#0078A9"/>
<path id="Path_23" d="M223.592 15.8823C224.707 15.9412 224.819 16.5294 224.819 17.1765C224.819 17.8823 224.261 18.2941 223.648 18.2941H221.696V17.4706H223.202C223.48 17.4706 223.815 17.4706 223.815 17.1176C223.815 16.9412 223.759 16.8235 223.48 16.8235C223.369 16.8235 222.923 16.7647 222.867 16.7647C221.864 16.7647 221.641 16.2353 221.641 15.5882C221.641 14.8823 222.142 14.4706 222.7 14.4706H224.596V15.2941H223.202C222.867 15.2941 222.533 15.2353 222.533 15.6471C222.533 15.8823 222.7 15.9412 222.923 15.9412C223.034 15.8823 223.48 15.9412 223.592 15.8823Z" fill="#0078A9"/>
<path id="Path_24" d="M220.135 15.8823C221.25 15.9412 221.362 16.5294 221.362 17.1765C221.362 17.8823 220.804 18.2941 220.191 18.2941H218.296V17.4706H219.801C220.08 17.4706 220.414 17.4706 220.414 17.1176C220.414 16.9412 220.358 16.8235 220.08 16.8235C219.968 16.8235 219.522 16.7647 219.466 16.7647C218.463 16.7647 218.24 16.2353 218.24 15.5882C218.24 14.8823 218.742 14.4706 219.299 14.4706H221.195V15.2941H219.801C219.466 15.2941 219.132 15.2353 219.132 15.6471C219.132 15.8823 219.299 15.9412 219.522 15.9412C219.578 15.8823 220.08 15.9412 220.135 15.8823Z" fill="#0078A9"/>
<path id="Shape_10" fill-rule="evenodd" clip-rule="evenodd" d="M206.252 14.4117H209.43C209.876 14.4117 210.545 14.647 210.49 15.647C210.49 17 209.597 17 209.151 17H207.925V18.2941H206.196L205.137 17L204.078 18.2941H200.621V14.4117H204.189L205.193 15.647L206.252 14.4117ZM201.569 17.4706H203.632L204.635 16.2941L203.743 15.2353H201.569V15.9412H203.576V16.7059H201.569V17.4706ZM207.089 17.9412L205.806 16.2941L207.089 14.7647V17.9412ZM208.036 16.1764H209.151C209.486 16.1764 209.653 15.9412 209.653 15.7059C209.653 15.4706 209.542 15.2353 209.151 15.2353H208.036V16.1764Z" fill="#0078A9"/>
<path id="Shape_11" fill-rule="evenodd" clip-rule="evenodd" d="M214.393 15.4706C214.393 15.9412 214.281 16.2941 213.779 16.5294C214.225 16.5882 214.393 16.8823 214.337 17.4706L214.393 18.2941H213.501V17.5882C213.501 17.2941 213.389 16.9412 213.055 16.9412H211.884V18.2941H210.992V14.4117H213.333C213.724 14.4117 214.393 14.647 214.393 15.4706ZM211.884 16.1176H212.999C213.389 16.1176 213.501 15.9412 213.501 15.7059C213.501 15.4706 213.389 15.2353 212.999 15.2353H211.884V16.1176Z" fill="#0078A9"/>
<rect id="Rectangle_2" x="211.326" y="7.70581" width="0.892059" height="3.88235" fill="#0078A9"/>
<path id="Path_25" d="M203.967 7.70581H206.922V8.52934H204.859V9.23522H206.866V9.99993H204.859V10.7646H206.922V11.5882H203.967V7.70581Z" fill="#0078A9"/>
<path id="Shape_12" fill-rule="evenodd" clip-rule="evenodd" d="M210.88 8.76463C210.88 9.23522 210.768 9.58816 210.267 9.82346C210.657 9.88228 210.824 10.1764 210.824 10.7646L210.88 11.5882H209.988V10.8823C209.988 10.5882 209.876 10.2352 209.542 10.2352H208.371V11.5882H207.479V7.70581H209.821C210.211 7.70581 210.88 7.9411 210.88 8.76463ZM208.371 9.41169H209.486C209.821 9.41169 209.988 9.23522 209.988 8.99993C209.988 8.76463 209.876 8.52934 209.486 8.52934H208.371V9.41169Z" fill="#0078A9"/>
<path id="Shape_13" fill-rule="evenodd" clip-rule="evenodd" d="M200.733 10.294L201.848 7.70581H203.297V11.5882H202.405V8.76463L201.179 11.5882H200.342L199.116 8.70581V11.5882H197.276L196.941 10.7058H195.157L194.823 11.5882H193.875L195.492 7.70581H196.663L198.224 11.4705V7.70581H199.618L200.733 10.294ZM196.049 8.52934L195.492 9.88228H196.607L196.049 8.52934Z" fill="#0078A9"/>
<path id="Shape_14" fill-rule="evenodd" clip-rule="evenodd" d="M221.585 10.4117V7.70581H222.477V11.5882H221.25L219.634 8.76463V11.5882H217.849L217.515 10.7058H215.731L215.396 11.5882H214.225C213.222 11.5882 212.776 10.7058 212.776 9.64699C212.832 8.05875 213.724 7.70581 214.114 7.70581H215.285V8.52934H214.727C214.114 8.52934 213.668 8.58816 213.668 9.52934V9.82346C213.668 10.4705 214.002 10.647 214.225 10.7058H214.783L216.01 7.70581H217.18L218.742 11.3529V7.70581H220.08L221.585 10.4117ZM216.623 8.52934L216.065 9.88228H217.18L216.623 8.52934Z" fill="#0078A9"/>
</g>
</g>
</g>
<defs>
<radialGradient id="paint0_radial_0_37" cx="0" cy="0" r="1" gradientUnits="userSpaceOnUse" gradientTransform="translate(162.843 12.9889) scale(1.93839 2.01874)">
<stop offset="0.005618" stop-color="#FFEEE0"/>
<stop offset="0.1096" stop-color="#FEE9D7"/>
<stop offset="0.2793" stop-color="#FDDBBF"/>
<stop offset="0.4935" stop-color="#FBC597"/>
<stop offset="0.744" stop-color="#F8A560"/>
<stop offset="1" stop-color="#F48120"/>
</radialGradient>
</defs>
</svg>
