<?xml version="1.0" encoding="UTF-8"?>
<svg width="14px" height="10px" viewBox="0 0 14 10" version="1.1" xmlns="http://www.w3.org/2000/svg" xmlns:xlink="http://www.w3.org/1999/xlink">
    <title>010-secure</title>
    <g id="Page-1" stroke="none" stroke-width="1" fill="none" fill-rule="evenodd">
        <g id="8" transform="translate(-172.000000, -747.000000)" fill="#FFFFFF" fill-rule="nonzero">
            <g id="010-secure" transform="translate(172.000000, 747.000000)">
                <path d="M13.5857778,2.3706146 L6.12836267,9.63639592 C5.95483794,9.80546158 5.72726451,9.89010989 5.49980961,9.89010989 C5.27235472,9.89010989 5.04478129,9.80557706 4.87125656,9.63639592 L0.260405632,5.14403044 C0.0936369819,4.98166274 0,4.76132307 0,4.53162937 C0,4.30193566 0.0937555097,4.08159599 0.260405632,3.91922829 L1.17591455,3.02724528 C1.52308255,2.68911397 2.08597119,2.68899849 2.43302067,3.02724528 L5.49980961,6.01522669 L11.4131628,0.253713965 C11.5798129,0.0912307841 11.805964,0 12.0417159,0 C12.2774677,0 12.5036188,0.0912307841 12.6702689,0.253713965 L13.5857778,1.14569697 C13.9329458,1.48394377 13.9329458,2.03236781 13.5857778,2.3706146 Z" id="Path"></path>
            </g>
        </g>
    </g>
</svg>