<?xml version="1.0" encoding="utf-8"?>
<svg width="36px" height="37px" viewBox="0 0 36 37" version="1.1" xmlns:xlink="http://www.w3.org/1999/xlink" xmlns="http://www.w3.org/2000/svg">
  <g id="Group-7-Copy-3">
    <path d="M12.5338 34.317C13.0048 34.317 13.3857 34.3607 13.7334 34.455C14.4306 34.6444 15.0465 35.0693 15.6988 35.5189C16.5189 36.0842 17.2267 36.5723 18.0001 36.5723C18.7731 36.5723 19.4807 36.0844 20.3001 35.5193C20.9539 35.069 21.5702 34.6444 22.2649 34.4554C22.9933 34.2581 23.7517 34.3117 24.5545 34.3682C25.4482 34.4315 26.3678 34.4974 27.0019 34.1247C27.6474 33.7451 28.0167 32.9726 28.4442 32.0779C28.7959 31.3419 29.1269 30.6496 29.6485 30.12C30.1712 29.589 30.8519 29.2534 31.5723 28.8983C32.4548 28.4631 33.2169 28.0873 33.5907 27.4309C33.9565 26.7885 33.8986 25.9393 33.8313 24.9556C33.775 24.1334 33.722 23.3569 33.9167 22.6185C34.1015 21.9146 34.5186 21.29 34.9601 20.6285C35.518 19.7927 36 19.0712 36 18.2859C36 17.5024 35.5208 16.7842 34.9657 15.9522C34.5212 15.286 34.1021 14.6586 33.9165 13.9529C33.7214 13.2134 33.775 12.4393 33.8313 11.6202C33.8929 10.7165 33.9565 9.78381 33.5909 9.14164C33.2171 8.48518 32.4567 8.11003 31.5758 7.67576C30.8507 7.31731 30.1686 6.9804 29.6485 6.45207C29.1265 5.92154 28.7959 5.22948 28.4459 4.49698C28.0178 3.60097 27.6481 2.82715 27.0017 2.44694C26.3709 2.07641 25.5354 2.13465 24.5695 2.20278C23.7552 2.2597 22.9913 2.31354 22.2662 2.11662C21.572 1.9285 20.9563 1.50434 20.3045 1.05535C19.4824 0.488773 18.7731 0 18.0001 0C17.2287 0 16.5217 0.486795 15.7027 1.05051C15.0472 1.50214 14.4298 1.9274 13.7347 2.11641C13.0085 2.31332 12.2483 2.26014 11.4433 2.20343C10.5092 2.13838 9.6285 2.07707 8.99811 2.44716C8.35257 2.82671 7.98329 3.59921 7.55582 4.49412C7.20299 5.2308 6.87135 5.92396 6.35129 6.45207C5.83122 6.98084 5.15151 7.31643 4.43199 7.67158C3.54676 8.10805 2.78311 8.48474 2.40929 9.14098C2.04304 9.78381 2.10686 10.7159 2.16873 11.6172C2.22476 12.4402 2.27754 13.2153 2.08392 13.9518C1.89745 14.6599 1.47928 15.2856 1.03666 15.9482C0.480257 16.7814 0 17.5005 0 18.2859C0 19.0694 0.478959 19.7878 1.03407 20.6197C1.47863 21.2856 1.89788 21.9133 2.08371 22.6192C2.27776 23.3569 2.22497 24.1312 2.16873 24.9509C2.10145 25.9382 2.04347 26.7889 2.40864 27.43C2.78246 28.0867 3.54243 28.4614 4.42204 28.8954C5.14697 29.2528 5.82971 29.5895 6.3515 30.1198C6.87243 30.649 7.20277 31.3399 7.55258 32.0716C7.98178 32.9704 8.35171 33.7447 8.99832 34.1247C9.63001 34.4967 10.5451 34.4315 11.4297 34.3693C11.7968 34.3433 12.1706 34.317 12.5338 34.317" id="Fill-1" fill="#f29869" fill-rule="evenodd" stroke="none" />
  </g>
</svg>