<svg width="16" height="16" viewBox="0 0 16 16" fill="none" xmlns="http://www.w3.org/2000/svg">
<g clip-path="url(#clip0_3703_2722)">
<path d="M11.332 2.00004C11.5018 1.79939 11.7118 1.63608 11.9487 1.52049C12.1856 1.40491 12.4441 1.33959 12.7078 1.32871C12.9715 1.31783 13.2346 1.36162 13.4803 1.4573C13.726 1.55297 13.9489 1.69842 14.1349 1.88439C14.3209 2.07035 14.4658 2.29275 14.5604 2.5374C14.655 2.78205 14.6973 3.04359 14.6844 3.30536C14.6716 3.56712 14.604 3.82336 14.486 4.05775C14.3679 4.29214 14.2019 4.49953 13.9987 4.6667L4.9987 13.6667L1.33203 14.6667L2.33203 11L11.332 2.00004Z" stroke="white" stroke-linecap="round" stroke-linejoin="round"/>
<path d="M10 3.33334L12.6667 6" stroke="white" stroke-linecap="round" stroke-linejoin="round"/>
</g>
<defs>
<clipPath id="clip0_3703_2722">
<rect width="16" height="16" fill="white"/>
</clipPath>
</defs>
</svg>
