<?xml version="1.0" encoding="utf-8"?>
<!-- Generator: Adobe Illustrator 23.0.5, SVG Export Plug-In . SVG Version: 6.00 Build 0)  -->
<svg version="1.1" id="Layer_1" xmlns="http://www.w3.org/2000/svg" xmlns:xlink="http://www.w3.org/1999/xlink" x="0px" y="0px"
	 viewBox="0 0 24 14" style="enable-background:new 0 0 24 14;" xml:space="preserve">
<title>arrow white</title>
<g id="landing-page-update">
	<g transform="translate(-708.000000, -730.000000)">
		
			<g id="arrow-white" transform="translate(720.000000, 737.000000) rotate(-90.000000) translate(-720.000000, -737.000000) translate(713.000000, 725.000000)">
			<path id="Path" d="M0,12c0,0.5,0.2,1.1,0.6,1.4l9.9,9.9c0.4,0.4,0.9,0.6,1.5,0.6c0.5,0,1.1-0.2,1.5-0.6c0.4-0.4,0.6-0.9,0.6-1.5
				c0-0.5-0.2-1.1-0.6-1.5L5,12l8.4-8.5v0c0.5-0.5,0.7-1.3,0.5-2c-0.2-0.7-0.7-1.3-1.5-1.5c-0.7-0.2-1.5,0-2,0.5l-9.9,9.9
				C0.2,10.9,0,11.5,0,12L0,12z"/>
		</g>
	</g>
</g>
</svg>
