<?xml version="1.0" encoding="utf-8"?>
<svg width="58px" height="37px" viewBox="0 0 58 37" version="1.1" xmlns:xlink="http://www.w3.org/1999/xlink" xmlns="http://www.w3.org/2000/svg">
  <g id="icon_laundry">
    <path d="M46.1347 36.9711L10.9858 36.9711C10.6502 36.9711 10.343 36.864 10.1114 36.6658C9.87984 36.5085 9.69788 36.4424 9.61045 36.1622L3.36976 16.5545L1.31861 16.5545C0.590796 16.5545 0 15.798 0 15.0961C0 14.3943 0.590772 13.6378 1.31861 13.6378L56.6814 13.6378C57.4092 13.6378 58 14.3943 58 15.0961C58 15.798 57.4092 16.5545 56.6814 16.5545L54.1978 16.5545L47.9595 36.1692C47.7799 36.7411 47.2246 37.0032 46.6244 36.9758C46.4755 37.0328 46.3077 36.9713 46.1352 36.9713L46.1347 36.9711ZM41.0989 34.6377L45.6952 34.6377L46.3639 32.3044L41.099 32.3044L41.0989 34.6377ZM30.2098 34.6377L38.0742 34.6377L38.0742 32.3044L30.2098 32.3044L30.2098 34.6377ZM19.3207 34.6377L27.79 34.6377L27.79 32.3044L19.3207 32.3044L19.3207 34.6377ZM11.8743 34.6377L16.2957 34.6377L16.2957 32.3044L11.2055 32.3044L11.8743 34.6377ZM41.0989 29.9711L47.1624 29.9711L47.9634 27.0544L41.0984 27.0544L41.0989 29.9711ZM30.2098 29.9711L38.0742 29.9711L38.0742 27.0544L30.2098 27.0544L30.2098 29.9711ZM19.3207 29.9711L27.79 29.9711L27.79 27.0544L19.3207 27.0544L19.3207 29.9711ZM10.4025 29.9711L16.296 29.9711L16.296 27.0544L9.60163 27.0544L10.4025 29.9711ZM41.0989 24.721L48.7697 24.721L49.7055 21.8044L41.0989 21.8044L41.0989 24.721ZM30.2098 24.721L38.0742 24.721L38.0742 21.8044L30.2098 21.8044L30.2098 24.721ZM19.3207 24.721L27.79 24.721L27.79 21.8044L19.3207 21.8044L19.3207 24.721ZM8.79753 24.721L16.2959 24.721L16.2959 21.8044L7.86227 21.8044L8.79753 24.721ZM41.0989 19.471L50.509 19.471L51.4448 16.5543L41.0989 16.5543L41.0989 19.471ZM30.2098 19.471L38.0742 19.471L38.0742 16.5543L30.2098 16.5543L30.2098 19.471ZM19.3207 19.471L27.79 19.471L27.79 16.5543L19.3207 16.5543L19.3207 19.471ZM7.06071 19.471L16.2959 19.471L16.2959 16.5543L6.12545 16.5543L7.06071 19.471ZM27.9739 12.7101C27.2461 12.7101 26.6553 12.1405 26.6553 11.4386C26.6553 6.53267 22.5151 2.54043 17.4273 2.54043C12.3396 2.54043 8.19941 6.53267 8.19941 11.4386C8.19941 12.1405 7.60864 12.7101 6.8808 12.7101C6.15296 12.7101 5.56218 12.1405 5.56218 11.4386C5.56218 5.13161 10.8839 0 17.4247 0C21.6121 0 25.2987 2.10094 27.4112 5.26823C29.4695 3.75062 31.9436 2.94853 34.5122 2.9896C37.2462 3.03517 39.7535 4.04007 41.6276 5.83336C42.6319 5.21357 43.8276 4.85353 45.1061 4.85353C48.6743 4.85353 51.576 7.65174 51.576 11.0923C51.576 11.7941 50.9853 12.3638 50.2574 12.3638C49.5296 12.3638 48.9388 11.7942 48.9388 11.0923C48.9388 9.05291 47.2184 7.39408 45.1035 7.39408C42.9886 7.39408 41.2683 9.05297 41.2683 11.0923C41.2683 11.7941 40.6775 12.3638 39.9496 12.3638C39.2218 12.3638 38.631 11.7942 38.631 11.0923C38.631 9.80262 39.0398 8.60404 39.7346 7.60822C38.3474 6.29799 36.4924 5.562 34.4601 5.53009C32.3381 5.49591 30.2609 6.22962 28.5973 7.60595C29.0416 8.80453 29.2826 10.0942 29.2826 11.4386C29.292 12.1405 28.7013 12.7101 27.9734 12.7101L27.9739 12.7101Z" id="Fill-1" fill="#FFFFFF" fill-rule="evenodd" stroke="none" />
  </g>
</svg>