<?xml version="1.0" encoding="UTF-8"?>
<svg width="197px" height="46px" viewBox="0 0 197 46" version="1.1" xmlns="http://www.w3.org/2000/svg" xmlns:xlink="http://www.w3.org/1999/xlink">
    <title>logo_blue</title>
    <g id="Page-1" stroke="none" stroke-width="1" fill="none" fill-rule="evenodd">
        <g id="8" transform="translate(-161.000000, -64.000000)" fill="#000000">
            <g id="logo_blue" transform="translate(161.000000, 64.000000)">
                <g id="Group" transform="translate(0.000000, 4.139059)">
                    <path d="M43.099589,0.533060668 C43.0684477,0.282208589 42.8815997,0.0313565099 42.5079039,0.0313565099 L41.9785014,0.0313565099 C41.6670882,0.0313565099 41.5113816,0.156782549 41.4179576,0.376278119 L34.0997471,16.0545331 L34.0063231,16.0545331 L26.6881126,0.376278119 C26.5946886,0.188139059 26.3766993,0.0313565099 26.1275688,0.0313565099 L25.5981663,0.0313565099 C25.2244704,0.0313565099 25.0376225,0.250852079 25.0064812,0.533060668 L20.9892507,22.8588957 C20.9269681,23.3292434 21.1760986,23.6114519 21.6120771,23.6114519 L24.601644,23.6114519 C24.9130572,23.6114519 25.1621878,23.3292434 25.1933291,23.1097478 L27.1240911,10.5044308 L27.217515,10.5044308 L33.1032248,23.5487389 C33.1966488,23.736878 33.3834967,23.925017 33.6637686,23.925017 L34.2554537,23.925017 C34.5668669,23.925017 34.7537148,23.7682345 34.8159975,23.5487389 L40.6394246,10.5044308 L40.7328486,10.5044308 L42.6947518,23.1097478 C42.7570345,23.3292434 43.0373064,23.6114519 43.3175782,23.6114519 L46.3382864,23.6114519 C46.7742649,23.6114519 47.0233955,23.2978868 46.9299715,22.8588957 L43.099589,0.533060668 Z" id="Path"></path>
                    <path d="M58.3276952,0.376278119 L55.2447044,0.376278119 C54.9021499,0.376278119 54.621878,0.689843217 54.621878,1.00340832 L54.621878,23.0156783 C54.621878,23.3605999 54.9332912,23.6428085 55.2447044,23.6428085 L58.3276952,23.6428085 C58.6702498,23.6428085 58.9505217,23.3292434 58.9505217,23.0156783 L58.9505217,1.00340832 C58.9505217,0.689843217 58.6391084,0.376278119 58.3276952,0.376278119 Z" id="Path"></path>
                    <path d="M85.1715144,7.52556237 C85.1715144,3.57464213 81.9016756,0.376278119 77.9155865,0.376278119 L68.3863421,0.376278119 C68.0126462,0.376278119 67.7635156,0.689843217 67.7635156,1.00340832 L67.7635156,22.9843217 C67.7635156,23.3292434 68.0437875,23.6114519 68.3863421,23.6114519 L71.4381916,23.6114519 C71.7807461,23.6114519 72.061018,23.2978868 72.061018,22.9843217 L72.061018,14.5180641 L75.7668353,14.5180641 L80.1889029,23.3292434 C80.2511856,23.4546694 80.4068922,23.6428085 80.7183054,23.6428085 L84.2061334,23.6428085 C84.7666772,23.6428085 85.0158078,23.1097478 84.7666772,22.6707566 L80.2200443,14.2358555 C83.1473285,13.0756646 85.1715144,10.5671438 85.1715144,7.52556237 Z M77.5730319,10.9747785 L72.154442,10.9747785 L72.154442,4.35855487 L77.5730319,4.35855487 C79.3480873,4.35855487 80.874012,5.83231084 80.874012,7.58827539 C80.8428707,9.43830948 79.3169459,10.9747785 77.5730319,10.9747785 Z" id="Shape"></path>
                    <path d="M101.956687,0.407634628 C101.863263,0.219495569 101.738697,0.0313565099 101.396143,0.0313565099 L101.053588,0.0313565099 C100.742175,0.0313565099 100.586469,0.188139059 100.493045,0.407634628 L90.1229845,22.7648262 C89.9361366,23.2038173 90.1852672,23.6428085 90.6835283,23.6428085 L93.5796712,23.6428085 C94.1090737,23.6428085 94.4204869,23.2978868 94.5450522,22.9843217 L96.1644009,19.4096796 L106.129624,19.4096796 L107.748972,22.9843217 C107.966962,23.4546694 108.216092,23.6428085 108.714353,23.6428085 L111.610496,23.6428085 C112.108758,23.6428085 112.389029,23.2038173 112.17104,22.7648262 L101.956687,0.407634628 Z M97.8460322,15.7096115 L101.115871,8.40354465 L101.209295,8.40354465 L104.541416,15.7096115 L97.8460322,15.7096115 Z" id="Shape"></path>
                    <path d="M134.499368,17.7164281 C134.31252,17.528289 133.938824,17.4969325 133.658552,17.7164281 C132.257193,18.8452624 130.575561,19.5978187 128.551375,19.5978187 C124.285014,19.5978187 121.108599,16.0858896 121.108599,11.9154738 C121.108599,7.71370143 124.285014,4.17041581 128.520234,4.17041581 C130.388713,4.17041581 132.257193,4.89161554 133.658552,6.14587594 C133.938824,6.39672802 134.250237,6.39672802 134.499368,6.14587594 L136.523554,4.04498978 C136.803825,3.7941377 136.803825,3.38650307 136.492412,3.10429448 C134.219096,1.06612134 131.790073,0 128.42681,0 C121.762567,0 116.40626,5.36196319 116.40626,12.0095433 C116.40626,18.6571234 121.762567,23.925017 128.42681,23.925017 C131.385236,23.925017 134.250237,22.8902522 136.523554,20.6952965 C136.741543,20.475801 136.834967,20.0368098 136.554695,19.7859577 L134.499368,17.7164281 Z" id="Path"></path>
                    <path d="M156.671989,19.6605317 L148.170408,19.6605317 L148.170408,1.00340832 C148.170408,0.658486708 147.858995,0.376278119 147.547581,0.376278119 L144.495732,0.376278119 C144.122036,0.376278119 143.872905,0.689843217 143.872905,1.00340832 L143.872905,23.0156783 C143.872905,23.3605999 144.153177,23.6428085 144.495732,23.6428085 L156.671989,23.6428085 C157.045684,23.6428085 157.294815,23.3292434 157.294815,23.0156783 L157.294815,20.2876619 C157.325956,19.9427403 157.045684,19.6605317 156.671989,19.6605317 Z" id="Path"></path>
                    <path d="M178.034935,0.376278119 L164.48846,0.376278119 C164.114764,0.376278119 163.865634,0.689843217 163.865634,1.00340832 L163.865634,23.0156783 C163.865634,23.3605999 164.145906,23.6428085 164.48846,23.6428085 L178.034935,23.6428085 C178.408631,23.6428085 178.657762,23.3292434 178.657762,23.0156783 L178.657762,20.2876619 C178.657762,19.9427403 178.37749,19.6605317 178.034935,19.6605317 L168.163136,19.6605317 L168.163136,13.8282209 L176.384445,13.8282209 C176.727,13.8282209 177.007272,13.5773688 177.007272,13.2010907 L177.007272,10.4417178 C177.007272,10.0967962 176.695858,9.81458759 176.384445,9.81458759 L168.163136,9.81458759 L168.163136,4.35855487 L178.034935,4.35855487 C178.408631,4.35855487 178.657762,4.04498978 178.657762,3.73142468 L178.657762,1.00340832 C178.657762,0.689843217 178.37749,0.376278119 178.034935,0.376278119 Z" id="Path"></path>
                    <polygon id="Path" points="7.50505849 9.56373551 6.25940563 4.26448534 4.98261144 9.56373551 0 8.05862304 3.70581726 11.8527607 0 15.6782549 4.98261144 14.1731425 6.25940563 19.4723926 7.50505849 14.1731425 12.4876699 15.6782549 8.78185267 11.8527607 12.4876699 8.05862304"></polygon>
                    <polygon id="Path" points="197 8.05862304 192.017389 9.56373551 190.771736 4.26448534 189.494942 9.56373551 184.51233 8.05862304 188.218147 11.8527607 184.51233 15.6782549 189.494942 14.1731425 190.771736 19.4723926 192.017389 14.1731425 197 15.6782549 193.294183 11.8527607"></polygon>
                    <polygon id="Path" points="77.8844451 38.4744376 74.770313 32.5794138 72.5281378 32.5794138 72.5281378 41.8609407 74.7391717 41.8609407 74.7391717 36.9066121 77.3550427 41.8609407 78.4138476 41.8609407 81.0297186 36.9379686 81.0297186 41.8609407 83.2407525 41.8609407 83.2407525 32.5794138 80.9985773 32.5794138"></polygon>
                    <path d="M91.3997787,32.5794138 L87.5071135,41.8609407 L89.9672779,41.8609407 L90.6212457,40.1676892 L94.5450522,40.1676892 L95.1990199,41.8609407 L97.628043,41.8609407 L93.7353778,32.5794138 L91.3997787,32.5794138 Z M91.3997787,38.2235855 L92.5831489,35.1820041 L93.7665191,38.2235855 L91.3997787,38.2235855 Z" id="Shape"></path>
                    <path d="M105.56908,32.5794138 L101.894404,32.5794138 L101.894404,41.8609407 L105.56908,41.8609407 C108.620929,41.8609407 110.645115,39.9795501 110.645115,37.2201772 C110.676257,34.4608044 108.652071,32.5794138 105.56908,32.5794138 Z M105.506797,39.8854806 L104.198862,39.8854806 L104.198862,34.5862304 L105.506797,34.5862304 C107.250711,34.5862304 108.371799,35.6523517 108.371799,37.2515337 C108.371799,38.8193592 107.21957,39.8854806 105.506797,39.8854806 Z" id="Shape"></path>
                    <polygon id="Path" points="117.714195 38.1608725 122.229687 38.1608725 122.229687 36.3108384 117.714195 36.3108384 117.714195 34.5548739 122.634524 34.5548739 122.634524 32.5794138 115.440879 32.5794138 115.440879 41.8609407 122.665666 41.8609407 122.665666 39.8854806 117.714195 39.8854806"></polygon>
                </g>
                <path d="M184.574613,1.97546012 C184.574613,3.10429448 183.702656,3.98227676 182.550427,3.98227676 C181.429339,3.98227676 180.526241,3.10429448 180.526241,1.97546012 C180.526241,0.877982277 181.429339,0 182.550427,0 C183.702656,0 184.574613,0.877982277 184.574613,1.97546012 Z M181.024502,1.97546012 C181.024502,2.8534424 181.67847,3.57464213 182.550427,3.57464213 C183.422384,3.57464213 184.04521,2.88479891 184.04521,2.00681663 C184.04521,1.12883436 183.422384,0.407634628 182.519285,0.407634628 C181.616187,0.407634628 181.024502,1.09747785 181.024502,1.97546012 Z M182.239014,3.01022495 L181.771894,3.01022495 L181.771894,1.03476483 C181.958742,1.00340832 182.207872,0.972051806 182.519285,0.972051806 C182.892981,0.972051806 183.048688,1.03476483 183.204395,1.12883436 C183.297819,1.22290389 183.391242,1.37968643 183.391242,1.56782549 C183.391242,1.78732106 183.235536,1.94410361 182.986405,2.03817314 L182.986405,2.06952965 C183.173253,2.13224267 183.297819,2.28902522 183.360101,2.5398773 C183.422384,2.8534424 183.453525,2.97886844 183.515808,3.04158146 L183.017547,3.04158146 C182.955264,2.97886844 182.924123,2.79072938 182.86184,2.57123381 C182.830699,2.35173824 182.706133,2.25766871 182.457003,2.25766871 L182.239014,2.25766871 L182.239014,3.01022495 L182.239014,3.01022495 Z M182.270155,1.9127471 L182.488144,1.9127471 C182.737275,1.9127471 182.955264,1.81867757 182.955264,1.63053851 C182.955264,1.44239945 182.830699,1.31697342 182.519285,1.31697342 C182.39472,1.31697342 182.301296,1.31697342 182.270155,1.34832993 L182.270155,1.9127471 L182.270155,1.9127471 Z" id="Shape" fill-rule="nonzero"></path>
            </g>
        </g>
    </g>
</svg>