<?xml version="1.0" encoding="UTF-8"?>
<svg width="21px" height="23px" viewBox="0 0 21 23" version="1.1" xmlns="http://www.w3.org/2000/svg" xmlns:xlink="http://www.w3.org/1999/xlink">
    <title>protect</title>
    <g id="Page-1" stroke="none" stroke-width="1" fill="none" fill-rule="evenodd">
        <g id="8" transform="translate(-197.000000, -1923.000000)" fill="#000000" fill-rule="nonzero">
            <g id="protect" transform="translate(197.000000, 1923.000000)">
                <path d="M10.2037897,12.9538006 C10.6975323,12.9538006 11.0977897,12.5535432 11.0977897,12.0598006 C11.0977897,11.5660581 10.6975323,11.1658006 10.2037897,11.1658006 C9.71004713,11.1658006 9.3097897,11.5660581 9.3097897,12.0598006 C9.3097897,12.2969042 9.40397872,12.5242966 9.57163624,12.6919541 C9.73929376,12.8596116 9.96668616,12.9538006 10.2037897,12.9538006 L10.2037897,12.9538006 Z M10.2037897,7.13680063 C9.86899261,7.12848226 9.54543114,7.25782137 9.30862079,7.49463172 C9.07181043,7.73144208 8.94247132,8.05500354 8.9507897,8.38980063 L8.9507897,9.46380063 L11.5417897,9.46380063 L11.5417897,8.38980063 C11.4266775,7.71811352 10.8777852,7.20562316 10.1997897,7.13680063 L10.2037897,7.13680063 Z" id="Path_30"></path>
                <path d="M20.1377897,3.55780063 L18.8847897,3.55780063 C15.7527897,3.55780063 13.3357897,1.94680063 10.5607897,0.0668006347 C10.3932233,-0.0222668782 10.1923561,-0.0222668782 10.0247897,0.0668006347 C7.3387897,1.94680063 4.8327897,3.55780063 1.7007897,3.55780063 L0.447789701,3.55780063 C0.327124383,3.55041288 0.209084952,3.59512982 0.123601919,3.68061285 C0.0381188855,3.76609589 -0.00659805027,3.88413532 0.000789701049,4.00480063 L0.000789701049,4.36280063 C0.000789701049,8.12180063 0.000789701049,18.0558006 10.0247897,22.2628006 C10.1836415,22.3818008 10.4019379,22.3818008 10.5607897,22.2628006 C20.6737897,18.0568006 20.5847897,8.12180063 20.5847897,4.36280063 L20.5847897,4.00480063 C20.5921775,3.88413532 20.5474605,3.76609589 20.4619775,3.68061285 C20.3764945,3.59512982 20.258455,3.55041288 20.1377897,3.55780063 L20.1377897,3.55780063 Z M13.9627897,14.6578006 L6.3547897,14.6578006 L6.3547897,9.46380063 L7.5187897,9.46380063 L7.5187897,8.38980063 C7.59974379,7.01563252 8.7377391,5.94270502 10.1142897,5.94270502 C11.4908403,5.94270502 12.6288356,7.01563252 12.7097897,8.38980063 L12.7097897,9.46380063 L13.8737897,9.46380063 L13.8737897,14.6558006 L13.9627897,14.6558006 L13.9627897,14.6578006 Z" id="Path_31"></path>
            </g>
        </g>
    </g>
</svg>