<?xml version="1.0" encoding="UTF-8"?>
<svg width="81px" height="14px" viewBox="0 0 81 14" version="1.1" xmlns="http://www.w3.org/2000/svg" xmlns:xlink="http://www.w3.org/1999/xlink">
    <title>rating_stars</title>
    <g id="Page-1" stroke="none" stroke-width="1" fill="none" fill-rule="evenodd">
        <g id="01_landing_funnel---oriya" transform="translate(-936.000000, -177.000000)" fill="#000000">
            <g id="rating_stars" transform="translate(936.365145, 177.588019)">
                <polygon id="Fill-1" points="9.04563 4.21734012 6.90111 0.000438119688 4.75308 4.21734012 0 4.92928461 3.45231 8.24944324 2.569887 13.0276642 6.901137 10.7891354 11.228877 13.0276642 10.349973 8.24944324 13.798773 4.92928461"></polygon>
                <polygon id="Fill-2" points="25.50573 4.21734012 23.36121 0.000438119688 21.21669 4.21734012 16.46361 4.92928461 19.91241 8.24944324 19.029987 13.0276642 23.361237 10.7891354 27.688977 13.0276642 26.810073 8.24944324 30.258873 4.92928461"></polygon>
                <polygon id="Fill-3" points="41.96583 4.21734012 39.82131 0.000438119688 37.67679 4.21734012 32.92371 4.92928461 36.37251 8.24944324 35.490087 13.0276642 39.821337 10.7891354 44.152587 13.0276642 43.270164 8.24944324 46.718964 4.92928461"></polygon>
                <polygon id="Fill-4" points="58.42593 4.21734012 56.28141 0.000438119688 54.13689 4.21734012 49.38381 4.92928461 52.83261 8.24944324 51.953706 13.0276642 56.281446 10.7891354 60.612696 13.0276642 59.730273 8.24944324 63.179073 4.92928461"></polygon>
                <polygon id="Fill-5" points="79.64253 4.92884649 74.88945 4.216902 72.74142 0 70.5969 4.216902 65.84382 4.92884649 69.29262 8.24900512 68.413716 13.0272261 72.741456 10.7886973 77.072706 13.0272261 76.190283 8.24900512"></polygon>
            </g>
        </g>
    </g>
</svg>