<?xml version="1.0" encoding="UTF-8"?>
<svg width="40px" height="40px" viewBox="0 0 40 40" version="1.1" xmlns="http://www.w3.org/2000/svg" xmlns:xlink="http://www.w3.org/1999/xlink">
    <title>secure-icon</title>
    <g id="Page-1" stroke="none" stroke-width="1" fill="none" fill-rule="evenodd">
        <g id="8" transform="translate(-591.000000, -62.000000)">
            <g id="secure-icon" transform="translate(591.000000, 62.000000)">
                <circle id="Oval" fill="#000000" cx="20" cy="20" r="20"></circle>
                <g id="padlock" transform="translate(12.000000, 7.000000)" fill="#FFFFFF" fill-rule="nonzero">
                    <path d="M13.8782711,9.78121688 L13.8782711,6.13885944 C13.8876801,4.49077804 13.2525728,2.90608438 12.1187886,1.750477 C11.0226404,0.619249523 9.5877683,0 8.06821523,0 C8.04469274,0 8.01646575,0 7.99294325,0 C4.75154366,0.0048759805 2.1170244,2.75492898 2.1170244,6.13885944 L2.1170244,9.78121688 C0.893854749,9.93237227 0,10.995336 0,12.2825949 L0,20.4644901 C0,21.8541446 1.0726257,23 2.41340782,23 L13.5865922,23 C14.9273743,23 16,21.8541446 16,20.4644901 L16,12.2825949 C15.9952955,11.000212 15.1014408,9.93237227 13.8782711,9.78121688 Z M3.05321964,6.13885944 L3.05792414,6.13885944 C3.05792414,3.29128683 5.27374302,0.960534901 7.99764775,0.960534901 L8.00235225,0.960534901 C9.29608939,0.955692177 10.538077,1.48717405 11.4554543,2.43311427 C12.4104675,3.41318635 12.9420759,4.749205 12.9326669,6.13885944 L12.9326669,9.78609286 L11.8976772,9.78609286 L11.8976772,6.13885944 C11.9070862,5.03201187 11.4836813,3.96904812 10.726257,3.18889124 C10.0111732,2.44774221 9.04204646,2.02840789 8.03057924,2.02840789 L8.00235225,2.02840789 C5.83828286,2.02840789 4.08820935,3.87152851 4.08820935,6.13398346 L4.08820935,9.78609286 L3.05321964,9.78609286 L3.05321964,6.13885944 L3.05321964,6.13885944 Z M10.9614819,6.13885944 L10.9614819,9.78609286 L5.03381358,9.78609286 L5.03381358,6.13885944 C5.03381358,4.41276235 6.36048221,3.00847997 8.00705675,3.00847997 L8.03528374,3.00847997 C8.79741253,3.00847997 9.53131432,3.3254187 10.0723317,3.88615646 C10.6462805,4.48102608 10.9708909,5.29531482 10.9614819,6.13885944 Z M15.1014408,20.4791181 L15.1014408,20.4791181 C15.1014408,21.3324147 14.4334019,22.0248039 13.6101147,22.0248039 L2.43222582,22.0248039 C1.60893855,22.0248039 0.940899735,21.3324147 0.940899735,20.4791181 L0.940899735,12.3069748 C0.940899735,11.4536782 1.60893855,10.761289 2.43222582,10.761289 L13.6101147,10.761289 C14.4334019,10.761289 15.1014408,11.4536782 15.1014408,12.3069748 L15.1014408,20.4791181 Z" id="Shape"></path>
                    <path d="M9.62540429,16.0907356 C9.41840635,15.3349587 8.75507204,14.8181047 7.99764775,14.8181047 C7.06145251,14.8181047 6.29932373,15.6031376 6.29932373,16.5783337 C6.29932373,17.3633665 6.79800059,18.0508798 7.52719788,18.2654229 L7.52719788,19.6306975 C7.52719788,19.8988764 7.73890032,20.1182955 7.99764775,20.1182955 C8.25639518,20.1182955 8.46809762,19.8988764 8.46809762,19.6306975 L8.46809762,18.2654229 C9.36665687,17.997244 9.88885622,17.0220479 9.62540429,16.0907356 Z M7.99764775,17.3584906 C7.57894737,17.3584906 7.24022346,17.00742 7.24022346,16.5734577 C7.24022346,16.1394954 7.57894737,15.7884248 7.99764775,15.7884248 C8.41634813,15.7884248 8.75507204,16.1394954 8.75507204,16.5734577 C8.75507204,17.00742 8.41634813,17.3584906 7.99764775,17.3584906 Z" id="Shape"></path>
                </g>
            </g>
        </g>
    </g>
</svg>