<?xml version="1.0" encoding="UTF-8"?>
<svg width="64px" height="36px" viewBox="0 0 64 36" version="1.1" xmlns="http://www.w3.org/2000/svg" xmlns:xlink="http://www.w3.org/1999/xlink">
    <title>Page 1 Copy 4</title>
    <g id="Page-1" stroke="none" stroke-width="1" fill="none" fill-rule="evenodd">
        <g id="01_landing_funnel---oriya" transform="translate(-687.000000, -3627.000000)" fill="#FFFEF2">
            <path d="M740.945828,3632.45742 L733.408165,3632.45742 L733.408165,3627 L697.53919,3627 L697.53919,3633.83932 L687,3633.83932 L687,3636.12002 L697.53919,3636.12002 L697.53919,3640.74885 L688.887033,3640.74885 L688.887033,3643.02954 L697.53919,3643.02954 L697.53919,3647.65837 L690.560518,3647.65837 L690.560518,3649.93907 L697.53919,3649.93907 L697.53919,3658.64645 L704.239831,3658.64645 C704.588765,3661.13498 706.75327,3663 709.33482,3663 C711.91637,3663 714.080874,3661.13498 714.429808,3658.64645 L735.437005,3658.64645 C735.785938,3661.13498 737.950443,3663 740.531993,3663 C743.113543,3663 745.278048,3661.13498 745.626981,3658.64645 L751,3658.64645 L751,3643.65347 C750.855521,3636.87889 746.946369,3632.45797 740.946526,3632.45797 L740.945828,3632.45742 Z M709.261264,3660.78647 C707.726515,3660.78647 706.469796,3659.5422 706.469796,3658.02266 C706.469796,3656.50311 707.726515,3655.25885 709.261264,3655.25885 C710.796014,3655.25885 712.052733,3656.50311 712.052733,3658.02266 C712.052733,3659.5422 710.796014,3660.78647 709.261264,3660.78647 Z M731.0343,3656.43291 L714.146334,3656.43291 C713.448467,3654.43026 711.564784,3652.90795 709.261264,3652.90795 C707.028648,3652.90795 705.074062,3654.36006 704.376195,3656.43291 L699.769155,3656.43291 L699.769155,3629.34827 L731.0343,3629.34827 L731.0343,3656.43291 Z M740.386837,3660.78647 C738.852087,3660.78647 737.595368,3659.5422 737.595368,3658.02266 C737.595368,3656.50311 738.852087,3655.25885 740.386837,3655.25885 C741.921586,3655.25885 743.178305,3656.50311 743.178305,3658.02266 C743.178305,3659.5422 741.921586,3660.78647 740.386837,3660.78647 Z M748.4807,3656.43291 L745.269394,3656.43291 C744.571527,3654.43026 742.687844,3652.90795 740.384324,3652.90795 C738.080804,3652.90795 736.197121,3654.36006 735.499254,3656.43291 L733.33475,3656.43291 L733.33475,3634.73839 L740.872413,3634.73839 C745.547564,3634.73839 748.410075,3638.19315 748.410075,3643.72077 L748.412797,3656.43291 L748.4807,3656.43291 Z" id="Page-1-Copy-4"></path>
        </g>
    </g>
</svg>