<?xml version="1.0" encoding="utf-8"?>
<svg width="45px" height="50px" viewBox="0 0 45 50" version="1.1" xmlns:xlink="http://www.w3.org/1999/xlink" xmlns="http://www.w3.org/2000/svg">
  <g id="icon_skin">
    <g id="Group-59">
      <path d="M34.0473 2.30469C30.9741 0.742196 27.5094 0 24.0664 0C13.1191 0 2.40155 7.49596 5.32241 19.9334L3.39939 22.2342L0 28.3847L3.30847 30.9823L3.17012 35.3534L4.49233 37.2264C4.49233 37.2264 2.91912 43.0684 5.32436 43.8984C7.58536 44.6777 10.0499 44.871 11.9392 44.871C13.799 44.871 15.0974 44.6835 15.0974 44.6835L15.3583 50L37.6834 50C37.6834 50 35.4738 38.9806 38.8297 34.3011C42.1836 29.6195 53.1289 12.0122 34.0469 2.30524L34.0473 2.30469ZM34.8912 43.986C34.9505 45.4645 35.0869 46.8278 35.2252 47.9157L17.3646 47.9176L17.1986 44.5817L17.088 42.2907L14.7914 42.6227C14.7795 42.6247 13.5957 42.7868 11.9336 42.7868C10.4197 42.7868 8.22196 42.6501 6.21986 41.9997C6.12895 41.7341 6.01827 41.0602 6.15069 39.8278C6.27125 38.7184 6.52225 37.7673 6.52422 37.7614L6.77522 36.8278L6.21589 36.0349L5.29491 34.7282L5.41151 31.0485L5.44511 30.0036L4.61702 29.3532L2.69795 27.8455L5.15065 23.408L6.94718 21.2615L7.61124 20.4666L7.37606 19.4627C6.85032 17.2244 6.80489 15.0994 7.23969 13.1422C7.63694 11.3551 8.4354 9.7067 9.61134 8.24185C11.1292 6.35516 13.2775 4.78877 15.829 3.71258C18.3548 2.64618 21.2027 2.08173 24.0664 2.08173C27.2997 2.08173 30.4166 2.79853 33.0824 4.15592C35.875 5.57582 38.1005 7.24576 39.6972 9.1188C41.0728 10.7321 42.0155 12.5387 42.4958 14.4898C43.2863 17.689 42.895 21.3547 41.3317 25.3862C39.9976 28.8256 38.1141 31.6907 37.1081 33.0912C35.442 35.4193 34.695 39.0851 34.8907 43.9856L34.8912 43.986Z" id="Fill-1" fill="#FFFFFF" fill-rule="evenodd" stroke="none" />
      <path d="M1.125 0C0.502365 0 6.61213e-06 0.496152 6.61213e-06 1.11111C-0.00210613 1.72398 0.502359 2.22222 1.125 2.22222C1.74765 2.22222 2.25 1.72399 2.25 1.10903C2.25 0.496158 1.74554 0 1.125 0Z" transform="translate(18 28.88889)" id="Fill-2" fill="#FFFFFF" fill-rule="evenodd" stroke="none" />
      <path d="M1.12605 0C0.503993 0 0 0.497302 0 1.11111C0 1.72492 0.503988 2.22222 1.12605 2.22222C1.74811 2.22222 2.24999 1.72492 2.24999 1.11111C2.2521 0.497307 1.74811 0 1.12605 0Z" transform="translate(13.5 33.333332)" id="Fill-3" fill="#FFFFFF" fill-rule="evenodd" stroke="none" />
      <path d="M1.125 0C0.50236 0 0 0.497767 0 1.11215C0 1.72653 0.504461 2.22222 1.125 2.22222C1.74553 2.22222 2.25 1.72653 2.25 1.11215C2.25 0.497767 1.74554 0 1.125 0Z" transform="translate(9 21.11111)" id="Fill-4" fill="#FFFFFF" fill-rule="evenodd" stroke="none" />
      <path d="M1.125 0C0.50236 0 0 0.495688 0 1.11215C0 1.72445 0.504461 2.22222 1.125 2.22222C1.74764 2.22222 2.25 1.72445 2.25 1.11215C2.25 0.495693 1.74554 0 1.125 0Z" transform="translate(4.5 24.444445)" id="Fill-5" fill="#FFFFFF" fill-rule="evenodd" stroke="none" />
      <path d="M1.12395 0C0.501889 0 0 0.496152 0 1.11111C0 1.72398 0.501884 2.22222 1.12395 2.22222C1.74601 2.22222 2.25 1.72399 2.25 1.10903C2.24789 0.496158 1.7439 0 1.12395 0Z" transform="translate(9 28.88889)" id="Fill-6" fill="#FFFFFF" fill-rule="evenodd" stroke="none" />
      <path d="M1.12605 0C0.503993 0 0 0.495688 0 1.11215C0 1.72445 0.503988 2.22222 1.12605 2.22222C1.74811 2.22222 2.24999 1.72445 2.24999 1.11215C2.2521 0.495693 1.74811 0 1.12605 0Z" transform="translate(13.5 24.444445)" id="Fill-7" fill="#FFFFFF" fill-rule="evenodd" stroke="none" />
      <path d="M1.125 0C0.50236 0 0 0.497767 0 1.11215C0 1.72653 0.504461 2.22222 1.125 2.22222C1.74764 2.22222 2.25 1.72445 2.25 1.11215C2.25 0.497773 1.74554 0 1.125 0Z" transform="translate(18 21.11111)" id="Fill-8" fill="#FFFFFF" fill-rule="evenodd" stroke="none" />
      <path d="M1.125 0C0.50236 0 0 0.495688 0 1.11215C0 1.72445 0.504461 2.22222 1.125 2.22222C1.74764 2.22222 2.25 1.72445 2.25 1.11215C2.25 0.495693 1.74554 0 1.125 0Z" transform="translate(18 36.666668)" id="Fill-9" fill="#FFFFFF" fill-rule="evenodd" stroke="none" />
      <path d="M1.12395 0C0.501889 0 0 0.495688 0 1.11215C0 1.72445 0.503989 2.22222 1.12395 2.22222C1.74601 2.22222 2.25 1.72445 2.25 1.11215C2.24789 0.495693 1.7439 0 1.12395 0Z" transform="translate(9 36.666668)" id="Fill-10" fill="#FFFFFF" fill-rule="evenodd" stroke="none" />
      <path d="M1.12395 0C0.503995 0 0 0.497302 0 1.11111C0 1.72492 0.503989 2.22222 1.12395 2.22222C1.74601 2.22222 2.25 1.72492 2.25 1.11111C2.24789 0.497307 1.7439 0 1.12395 0Z" transform="translate(21.375 33.333332)" id="Fill-11" fill="#FFFFFF" fill-rule="evenodd" stroke="none" />
      <path d="M1.12395 0C0.503995 0 0 0.495688 0 1.11215C0 1.72445 0.503989 2.22222 1.12395 2.22222C1.74601 2.22222 2.25 1.72445 2.25 1.11215C2.24789 0.495693 1.7439 0 1.12395 0Z" transform="translate(21.375 24.444445)" id="Fill-12" fill="#FFFFFF" fill-rule="evenodd" stroke="none" />
    </g>
  </g>
</svg>