<?xml version="1.0" encoding="utf-8"?>
<svg width="29px" height="52px" viewBox="0 0 29 52" version="1.1" xmlns:xlink="http://www.w3.org/1999/xlink" xmlns="http://www.w3.org/2000/svg">
  <g id="icon_temperature">
    <g id="Page-1-Copy-3">
      <path d="M10.095 0.000608771C6.62892 0.000608771 3.78454 2.83279 3.77546 6.3093L3.77546 33.7417C0.590734 36.3932 -0.787696 40.7286 0.451221 44.7708C1.7658 49.0584 5.67399 52.0024 10.0907 52C14.5096 52 18.4131 49.0512 19.7229 44.7635C20.9594 40.7209 19.5834 36.3905 16.3963 33.7417L16.3963 6.3233C16.3939 2.84667 13.5567 0 10.0906 0L10.095 0.000608771ZM10.0927 2.54509C12.1993 2.54509 13.8732 4.22871 13.8756 6.33091L13.8756 34.903L14.4075 35.2811C17.1265 37.2168 18.3087 40.76 17.3109 44.0157C16.3156 47.2712 13.3956 49.4614 10.0925 49.4614L10.0902 49.4614C6.7849 49.4614 3.86262 47.2784 2.86272 44.0228C1.865 40.7673 3.0495 37.2168 5.76611 35.2791L6.29809 34.901L6.29809 6.32221C6.30281 4.22006 7.98387 2.54357 10.0904 2.54357L10.0927 2.54509Z" transform="translate(8.8269415 0)" id="Fill-1" fill="#FFFFFF" fill-rule="evenodd" stroke="none" />
      <path d="M5.04307 0C2.2721 0 0 2.28527 0 5.07228C0 7.85929 2.2721 10.1446 5.04307 10.1446C7.81403 10.1446 10.0861 7.85929 10.0861 5.07228C10.0861 2.28527 7.81403 0 5.04307 0ZM5.04307 2.53736C6.44983 2.53736 7.56581 3.65737 7.56581 5.07471C7.56581 6.48962 6.45225 7.61207 5.04307 7.61207C3.63631 7.61207 2.52032 6.49205 2.52032 5.07471C2.52032 3.65981 3.63389 2.53736 5.04307 2.53736Z" transform="translate(13.87164 36.78133)" id="Fill-2" fill="#FFFFFF" fill-rule="evenodd" stroke="none" />
      <path d="M1.2414 0.000110894C0.546316 0.0096199 -0.00931762 0.585103 0.000124515 1.28425L0.000124515 8.85797C-0.00460261 9.19802 0.125433 9.52622 0.361867 9.76638C0.600662 10.0089 0.92221 10.1445 1.26032 10.1445C1.59844 10.1445 1.92236 10.0089 2.15878 9.76638C2.39521 9.5262 2.52761 9.19804 2.52288 8.85797L2.52288 1.28425C2.52525 0.941819 2.39285 0.611256 2.15168 0.371096C1.91052 0.128537 1.58188 -0.00463143 1.24143 0.00012307L1.2414 0.000110894Z" transform="translate(17.654543 29.171583)" id="Fill-3" fill="#FFFFFF" fill-rule="evenodd" stroke="none" />
      <path d="M1.2791 0.000125533C0.941006 -0.00462897 0.617062 0.126159 0.375924 0.366338C0.134762 0.604136 0 0.929926 0 1.26762C0 1.60768 0.134768 1.9335 0.375924 2.17128C0.617086 2.40908 0.940993 2.54226 1.2791 2.53749L7.54904 2.53749C7.88714 2.54225 8.21108 2.40908 8.45222 2.17128C8.69338 1.93348 8.82814 1.60769 8.82814 1.26762C8.82814 0.929944 8.69337 0.604185 8.45222 0.366338C8.21106 0.126159 7.88715 -0.00463506 7.54904 0.000125533L1.2791 0.000125533Z" transform="translate(0 31.706491)" id="Fill-5" fill="#FFFFFF" fill-rule="evenodd" stroke="none" />
      <path d="M1.2791 0.000125533C0.941006 -0.00462897 0.614701 0.126159 0.375924 0.366338C0.134762 0.604136 0 0.929926 0 1.26762C0 1.60768 0.134768 1.9335 0.375924 2.17128C0.614719 2.40908 0.940993 2.54226 1.2791 2.53749L5.02654 2.53749C5.36463 2.54225 5.68858 2.40908 5.92972 2.17128C6.17088 1.93348 6.30564 1.60769 6.30564 1.26762C6.30564 0.929944 6.17087 0.604185 5.92972 0.366338C5.68855 0.126159 5.36465 -0.00463506 5.02654 0.000125533L1.2791 0.000125533Z" transform="translate(2.522745 16.487219)" id="Fill-6" fill="#FFFFFF" fill-rule="evenodd" stroke="none" />
      <path d="M1.2791 0.000125236C0.941006 -0.00462926 0.617062 0.126159 0.375924 0.363963C0.134762 0.601761 0 0.927551 0 1.26762C0 1.60768 0.134768 1.9335 0.375924 2.17128C0.617086 2.40908 0.940993 2.53987 1.2791 2.53512L7.54904 2.53512C7.88714 2.53987 8.21108 2.40909 8.45222 2.17128C8.69338 1.93348 8.82814 1.60769 8.82814 1.26762C8.82814 0.92757 8.69337 0.601749 8.45222 0.363963C8.21106 0.126159 7.88715 -0.00462926 7.54904 0.000125236L1.2791 0.000125236Z" transform="translate(0 11.414939)" id="Fill-7" fill="#FFFFFF" fill-rule="evenodd" stroke="none" />
      <path d="M1.2791 0.000123399C0.941006 -0.0046311 0.614701 0.128538 0.375924 0.366336C0.134762 0.604134 0 0.929924 0 1.27C0 1.60767 0.134768 1.93343 0.375924 2.17128C0.614719 2.41146 0.940993 2.54225 1.2791 2.53749L5.02654 2.53749C5.36463 2.54225 5.68858 2.41146 5.92972 2.17128C6.17088 1.93348 6.30564 1.60769 6.30564 1.27C6.30564 0.929942 6.17087 0.604122 5.92972 0.366336C5.68855 0.128538 5.36465 -0.00463719 5.02654 0.000123399L1.2791 0.000123399Z" transform="translate(2.522745 6.340226)" id="Fill-8" fill="#FFFFFF" fill-rule="evenodd" stroke="none" />
      <path d="M1.2791 0.000125533C0.941006 -0.00462897 0.617062 0.126159 0.375924 0.366338C0.134762 0.604136 0 0.929926 0 1.26762C0 1.60768 0.134768 1.9335 0.375924 2.17128C0.617086 2.40908 0.940993 2.54226 1.2791 2.53749L7.54904 2.53749C7.88714 2.54225 8.21108 2.40908 8.45222 2.17128C8.69338 1.93348 8.82814 1.60769 8.82814 1.26762C8.82814 0.929944 8.69337 0.604185 8.45222 0.366338C8.21106 0.126159 7.88715 -0.00463506 7.54904 0.000125533L1.2791 0.000125533Z" transform="translate(0 1.2679443)" id="Fill-9" fill="#FFFFFF" fill-rule="evenodd" stroke="none" />
      <path d="M1.2791 0.000125236C0.941006 -0.00462926 0.614701 0.126159 0.375924 0.363963C0.134762 0.601761 0 0.927551 0 1.26762C0 1.60768 0.134768 1.9335 0.375924 2.17128C0.614719 2.40908 0.940993 2.53987 1.2791 2.53512L5.02654 2.53512C5.36463 2.53987 5.68858 2.40909 5.92972 2.17128C6.17088 1.93348 6.30564 1.60769 6.30564 1.26762C6.30564 0.92757 6.17087 0.601749 5.92972 0.363963C5.68855 0.126159 5.36465 -0.00462926 5.02654 0.000125236L1.2791 0.000125236Z" transform="translate(2.522745 26.634212)" id="Fill-10" fill="#FFFFFF" fill-rule="evenodd" stroke="none" />
      <path d="M1.2791 0.000123399C0.941006 -0.0046311 0.617062 0.128538 0.375924 0.366336C0.134762 0.604134 0 0.929924 0 1.27C0 1.60767 0.134768 1.93343 0.375924 2.17365C0.617086 2.41145 0.940993 2.54225 1.2791 2.53749L7.54904 2.53749C7.88714 2.54225 8.21108 2.41146 8.45222 2.17365C8.69338 1.93348 8.82814 1.60769 8.82814 1.27C8.82814 0.929942 8.69337 0.604122 8.45222 0.366336C8.21106 0.128538 7.88715 -0.00463719 7.54904 0.000123399L1.2791 0.000123399Z" transform="translate(0 21.5595)" id="Fill-11" fill="#FFFFFF" fill-rule="evenodd" stroke="none" />
    </g>
  </g>
</svg>