<?xml version="1.0" encoding="UTF-8"?>
<svg width="25px" height="18px" viewBox="0 0 25 18" version="1.1" xmlns="http://www.w3.org/2000/svg" xmlns:xlink="http://www.w3.org/1999/xlink">
    <title>Path</title>
    <g id="Page-1" stroke="none" stroke-width="1" fill="none" fill-rule="evenodd">
        <g id="1" transform="translate(-256.000000, -48.000000)" fill="#000000" fill-rule="nonzero">
            <g id="002-correct-symbol" transform="translate(256.000000, 48.000000)">
                <path d="M24.548395,2.48476611 L22.3548863,0.424184352 C22.0541178,0.141430164 21.6883258,0 21.2583579,0 C20.8279945,0 20.4622026,0.141430164 20.1614341,0.424184352 L9.58064135,10.3787982 L4.83867865,5.90902122 C4.53757116,5.62616089 4.17200521,5.48488994 3.74203728,5.48488994 C3.31178688,5.48488994 2.94622093,5.62616089 2.64511344,5.90902122 L0.451604735,7.96965605 C0.15049725,8.25246331 0,8.59598205 0,9.00010614 C0,9.40391181 0.15049725,9.74774897 0.451604735,10.0305032 L6.2902088,15.5151808 L8.48388699,17.5757626 C8.784825,17.858729 9.15050394,18 9.58064135,18 C10.0106093,18 10.3762882,17.8583576 10.6773957,17.5757626 L12.8710174,15.5151808 L24.548395,4.54550708 C24.84922,4.26264675 25,3.91918108 25,3.51505699 C25,3.11114518 24.84922,2.76762644 24.548395,2.48476611 Z" id="Path"></path>
            </g>
        </g>
    </g>
</svg>