<?xml version="1.0" encoding="utf-8"?>
<!-- Generator: Adobe Illustrator 23.0.5, SVG Export Plug-In . SVG Version: 6.00 Build 0)  -->
<svg version="1.1" id="Layer_1" xmlns="http://www.w3.org/2000/svg" xmlns:xlink="http://www.w3.org/1999/xlink" x="0px" y="0px"
	 viewBox="0 0 24 24" style="enable-background:new 0 0 24 24;" xml:space="preserve">
<style type="text/css">
	.st0{fill-rule:evenodd;clip-rule:evenodd;}
	.st1{fill:#FFFFFF;}
	.st2{font-family:'BrandonGrotesque-Black';}
	.st3{font-size:6.1865px;}
	.st4{font-size:4.4992px;}
	.st5{fill:none;stroke:#FFFEF2;stroke-width:0.605;}
</style>
<title>30-day-guarantee</title>
<g id="Page-1">
	<g transform="translate(-864.000000, -813.000000)">
		<g transform="translate(864.000000, 813.000000)">
			<path id="Fill-1" class="st0" d="M8.4,22.5c0.3,0,0.6,0,0.8,0.1c0.5,0.1,0.9,0.4,1.3,0.7c0.5,0.4,1,0.7,1.5,0.7
				c0.5,0,1-0.3,1.5-0.7c0.4-0.3,0.8-0.6,1.3-0.7c0.5-0.1,1-0.1,1.5-0.1c0.6,0,1.2,0.1,1.6-0.2c0.4-0.2,0.7-0.8,1-1.3
				c0.2-0.5,0.5-0.9,0.8-1.3c0.3-0.3,0.8-0.6,1.3-0.8c0.6-0.3,1.1-0.5,1.3-1c0.2-0.4,0.2-1,0.2-1.6c0-0.5-0.1-1,0.1-1.5
				c0.1-0.5,0.4-0.9,0.7-1.3c0.4-0.5,0.7-1,0.7-1.5c0-0.5-0.3-1-0.7-1.5C23,10,22.7,9.6,22.6,9.2c-0.1-0.5-0.1-1-0.1-1.5
				c0-0.6,0.1-1.2-0.2-1.6c-0.2-0.4-0.8-0.7-1.3-1c-0.5-0.2-0.9-0.5-1.3-0.8C19.4,3.9,19.2,3.4,19,3c-0.3-0.6-0.5-1.1-1-1.3
				c-0.4-0.2-1-0.2-1.6-0.2c-0.5,0-1.1,0.1-1.5-0.1C14.4,1.3,14,1,13.5,0.7C13,0.3,12.5,0,12,0c-0.5,0-1,0.3-1.5,0.7
				C10,1,9.6,1.3,9.2,1.4c-0.5,0.1-1,0.1-1.5,0.1C7,1.4,6.4,1.4,6,1.6C5.6,1.9,5.3,2.4,5,2.9C4.8,3.4,4.6,3.9,4.2,4.2
				C3.9,4.6,3.4,4.8,3,5C2.4,5.3,1.9,5.6,1.6,6C1.4,6.4,1.4,7,1.4,7.6c0,0.5,0.1,1-0.1,1.5C1.3,9.6,1,10,0.7,10.5
				C0.3,11,0,11.5,0,12c0,0.5,0.3,1,0.7,1.5C1,14,1.3,14.4,1.4,14.8c0.1,0.5,0.1,1,0.1,1.5c0,0.6-0.1,1.2,0.2,1.6
				c0.2,0.4,0.8,0.7,1.3,1c0.5,0.2,0.9,0.5,1.3,0.8C4.6,20.1,4.8,20.6,5,21c0.3,0.6,0.5,1.1,1,1.3c0.4,0.2,1,0.2,1.6,0.2
				C7.9,22.5,8.1,22.5,8.4,22.5"/>
			<text transform="matrix(1 0 0 1 8.3784 10.9045)" class="st1 st2 st3">30</text>
			<text transform="matrix(1 0 0 1 15.4371 10.9045)" class="st1 st2 st3"> </text>
			<text transform="matrix(1 0 0 1 7.8528 17.1804)" class="st1 st2 st4">DAY</text>
			<ellipse id="Oval" class="st5" cx="11.9" cy="12" rx="8.6" ry="8.6"/>
		</g>
	</g>
</g>
</svg>
