<?xml version="1.0" encoding="UTF-8"?>
<svg width="14px" height="20px" viewBox="0 0 14 20" version="1.1" xmlns="http://www.w3.org/2000/svg" xmlns:xlink="http://www.w3.org/1999/xlink">
    <title>hourglass</title>
    <g id="Page-1" stroke="none" stroke-width="1" fill="none" fill-rule="evenodd">
        <g id="1_m" transform="translate(-57.000000, -828.000000)" fill="#29333F" fill-rule="nonzero">
            <g id="hourglass" transform="translate(57.000000, 828.000000)">
                <path d="M7,13.2421875 C6.77270588,13.2421875 6.58823529,13.4171875 6.58823529,13.6328125 C6.58823529,13.8484375 6.77270588,14.0234375 7,14.0234375 C7.22729412,14.0234375 7.41176471,13.8484375 7.41176471,13.6328125 C7.41176471,13.4171875 7.22729412,13.2421875 7,13.2421875 Z" id="Path"></path>
                <path d="M12.3529412,17.6952734 L12.3529412,15.5859375 C12.3529412,13.3948437 10.8764353,11.3766016 8.76222941,10.6779297 C8.44208235,10.5722656 8.23529412,10.3061719 8.23529412,10 C8.23529412,9.69144531 8.44842353,9.42574219 8.76235294,9.32203125 C10.9099941,8.61230469 12.3529412,6.68703125 12.3529412,4.53125 L12.3529412,2.30472656 C13.2836529,2.12625 14,1.34390625 14,0.390625 C14,0.174921875 13.8156118,0 13.5882353,0 L0.411764706,0 C0.184388235,0 0,0.174921875 0,0.390625 C0,1.33382813 0.708441176,2.12296875 1.64705882,2.30445313 L1.64705882,4.53125 C1.64705882,6.68703125 3.09000588,8.61230469 5.23777059,9.32207031 C5.55791765,9.42773438 5.76470588,9.69382812 5.76470588,10 C5.76470588,10.3085547 5.55157647,10.5742578 5.23764706,10.6779687 C3.12356471,11.3766016 1.64705882,13.3948437 1.64705882,15.5859375 L1.64705882,17.6955469 C0.708441176,17.8770312 0,18.6661328 0,19.609375 C0,19.8250781 0.184388235,20 0.411764706,20 L13.5882353,20 C13.8156118,20 14,19.8250781 14,19.609375 C14,19.0879297 13.7858,18.5975391 13.3968059,18.2284375 C13.1068412,17.9533594 12.7456824,17.7705859 12.3529412,17.6952734 Z M0.894105882,0.77734375 L13.1064294,0.77734375 C12.9336941,1.24136719 12.4765941,1.5625 11.9411765,1.5625 L2.05882353,1.5625 C1.52200588,1.5625 1.06404118,1.23207031 0.894105882,0.77734375 Z M2.47058824,15.5859375 C2.47058824,13.7216797 3.71988235,12.006875 5.50854706,11.4157422 C6.15127059,11.2033594 6.58823529,10.6436328 6.58823529,10 C6.58823529,9.36636719 6.15431765,8.79746094 5.50858824,8.58425781 C3.69142941,7.98375 2.47058824,6.355 2.47058824,4.53125 L2.47058824,2.34375 L11.5294118,2.34375 L11.5294118,4.53125 C11.5294118,6.355 10.3085706,7.98375 8.49145294,8.58425781 C7.84872941,8.79664063 7.41176471,9.35636719 7.41176471,10 C7.41176471,10.6336328 7.84568235,11.2025391 8.49141176,11.4157422 C10.2801176,12.006875 11.5294118,13.7216797 11.5294118,15.5859375 L11.5294118,17.65625 L10.6801882,17.65625 C10.4962941,16.2680859 9.32507059,15.760625 8.22047059,15.3954297 C7.87277647,15.2809375 7.55147647,15.0898047 7.29140588,14.8427344 C7.21415882,14.769375 7.10932353,14.728125 7.00004118,14.728125 C6.89075882,14.728125 6.78592353,14.769375 6.70867647,14.8427344 C6.44522941,15.0930078 6.1327,15.2790234 5.77961176,15.3955859 C4.67521765,15.7605859 3.50378824,16.2680078 3.31989412,17.65625 L2.47058824,17.65625 L2.47058824,15.5859375 Z M9.84698235,17.65625 L4.15297647,17.65625 C4.30660588,16.8632812 4.96180588,16.493125 6.05034706,16.1333984 C6.39235882,16.0204687 6.71505882,15.8523437 6.99995882,15.64 C7.28527059,15.8526563 7.60813529,16.0207812 7.9499,16.1333594 C9.03831765,16.4931641 9.69339412,16.8633203 9.84698235,17.65625 Z M0.894105882,19.21875 C1.06404118,18.7640234 1.52200588,18.4375 2.05882353,18.4375 L11.9411765,18.4375 C12.2709176,18.4375 12.5810588,18.5594531 12.8144882,18.7808594 C12.9470765,18.9066797 13.0458176,19.0559375 13.1063882,19.21875 L0.894105882,19.21875 Z" id="Shape"></path>
                <path d="M10.5105824,4.19894531 C10.3891941,4.1278125 10.2375824,4.12136719 10.1099765,4.18183594 C9.1497,4.63738281 8.07429412,4.878125 7,4.878125 C5.92570588,4.878125 4.8503,4.63738281 3.89002353,4.181875 C3.76241765,4.12132812 3.61084706,4.12777344 3.48941765,4.19898437 C3.36798824,4.27019531 3.29411765,4.39585937 3.29411765,4.53125 C3.29411765,6.02289062 4.29272941,7.35519531 5.77952941,7.84675781 C6.12722353,7.96125 6.44852353,8.15238281 6.70859412,8.39945312 C6.78584118,8.4728125 6.89067647,8.5140625 6.99995882,8.5140625 C7.10924118,8.5140625 7.21407647,8.4728125 7.29132353,8.39945312 C7.55477059,8.14917969 7.8673,7.96316406 8.22038824,7.84660156 C8.94999412,7.60554687 9.57254118,7.16214844 10.0206647,6.56425781 C10.4689529,5.96621094 10.7058824,5.26324219 10.7058824,4.53125 C10.7058824,4.39585937 10.6319706,4.27011719 10.5105824,4.19894531 Z M9.34957059,6.11152344 C9.00101176,6.57652344 8.51685882,6.92136719 7.94965294,7.10878906 C7.60764118,7.22171875 7.28494118,7.38988281 7.00004118,7.6021875 C6.71472941,7.38953125 6.39186471,7.22140625 6.0501,7.10882813 C5.10946471,6.79789063 4.42004706,6.0540625 4.19592353,5.16289063 C5.08784706,5.48902344 6.04433529,5.659375 7.00004118,5.659375 C7.95591176,5.659375 8.91264706,5.48890625 9.80469412,5.16265625 C9.71982941,5.50097656 9.56657059,5.82203125 9.34957059,6.11152344 Z" id="Shape"></path>
                <path d="M7,10.78125 C6.77262353,10.78125 6.58823529,10.9561719 6.58823529,11.171875 L6.58823529,12.0703125 C6.58823529,12.2860156 6.77262353,12.4609375 7,12.4609375 C7.22737647,12.4609375 7.41176471,12.2860156 7.41176471,12.0703125 L7.41176471,11.171875 C7.41176471,10.9561719 7.22737647,10.78125 7,10.78125 Z" id="Path"></path>
            </g>
        </g>
    </g>
</svg>