<?xml version="1.0" encoding="UTF-8"?>
<svg width="90px" height="16px" viewBox="0 0 90 16" version="1.1" xmlns="http://www.w3.org/2000/svg" xmlns:xlink="http://www.w3.org/1999/xlink">
    <title>Page 1 Copy</title>
    <g id="Page-1" stroke="none" stroke-width="1" fill="none" fill-rule="evenodd">
        <g id="1_m" transform="translate(-40.000000, -787.000000)" fill="#FFCD16">
            <g id="Page-1-Copy" transform="translate(40.000000, 787.000000)">
                <polygon id="Fill-1" points="10.805 5.379 8.4222 0.5665 6.0355 5.379 0.7543 6.1915 4.5902 9.9806 3.60973 15.4337 8.42223 12.879 13.23083 15.4337 12.25427 9.9806 16.08627 6.1915"></polygon>
                <polygon id="Fill-2" points="29.094 5.379 26.7112 0.5665 24.3284 5.379 19.0472 6.1915 22.8792 9.9806 21.89873 15.4337 26.71123 12.879 31.51983 15.4337 30.54327 9.9806 34.37527 6.1915"></polygon>
                <polygon id="Fill-3" points="47.383 5.379 45.0002 0.5665 42.6174 5.379 37.3362 6.1915 41.1682 9.9806 40.18773 15.4337 45.00023 12.879 49.81273 15.4337 48.83226 9.9806 52.66426 6.1915"></polygon>
                <polygon id="Fill-4" points="65.672 5.379 63.2892 0.5665 60.9064 5.379 55.6252 6.1915 59.4572 9.9806 58.48064 15.4337 63.28924 12.879 68.10174 15.4337 67.12127 9.9806 70.95327 6.1915"></polygon>
                <polygon id="Fill-5" points="89.246 6.191 83.9648 5.3785 81.5781 0.566 79.1953 5.3785 73.9141 6.191 77.7461 9.9801 76.76954 15.4332 81.57814 12.8785 86.39064 15.4332 85.41017 9.9801"></polygon>
            </g>
        </g>
    </g>
</svg>