<?xml version="1.0" encoding="UTF-8"?>
<svg width="16px" height="16px" viewBox="0 0 16 16" version="1.1" xmlns="http://www.w3.org/2000/svg" xmlns:xlink="http://www.w3.org/1999/xlink">
    <title>Group 3</title>
    <g id="Page-1" stroke="none" stroke-width="1" fill="none" fill-rule="evenodd">
        <g id="01_landing_funnel_update-copy-7" transform="translate(-1014.000000, -464.000000)">
            <g id="Group-3" transform="translate(1014.000000, 464.000000)">
                <g id="Group-2-Copy-3" fill="#FF935F">
                    <path d="M5.57059329,15.0133285 C5.77990638,15.0133285 5.94922211,15.032462 6.10373112,15.0737095 C6.41361448,15.1565891 6.68734639,15.3424434 6.97723107,15.5391623 C7.34172621,15.7864551 7.6563208,16 8.00004807,16 C8.34358306,16 8.6580815,15.7865513 9.02228819,15.5393546 C9.31284591,15.3423472 9.58677011,15.1565891 9.8954997,15.0739018 C10.2192283,14.9875608 10.5563214,15.011021 10.9131247,15.035731 C11.31031,15.0634217 11.719033,15.0922661 12.0008413,14.929199 C12.2877454,14.7631513 12.4518692,14.4251908 12.6418566,14.033772 C12.7981924,13.7117721 12.9452981,13.4089057 13.1771097,13.1771889 C13.409402,12.9448951 13.7119782,12.798077 14.0321493,12.6427018 C14.4243349,12.4523286 14.7630625,12.2879154 14.9292054,12.0007211 C15.0917908,11.7196803 15.0660233,11.3481642 15.0361214,10.9178054 C15.0111231,10.5581155 14.9875669,10.2184244 15.0740997,9.89536686 C15.1562096,9.5874046 15.341582,9.31415179 15.537819,9.02474611 C15.7857834,8.65909501 16,8.3434409 16,7.99990385 C16,7.65713599 15.7870333,7.3429241 15.5403188,6.97890752 C15.3427358,6.68748272 15.1564981,6.41297999 15.0740035,6.10424854 C14.9872785,5.78071029 15.0111231,5.4420768 15.0361214,5.08373295 C15.0635234,4.68837209 15.0917908,4.28031969 14.9293015,3.99937504 C14.7631587,3.71218076 14.4252003,3.54805601 14.0336877,3.35806742 C13.7114013,3.20124992 13.4082483,3.05385494 13.1771097,2.82271498 C12.9451058,2.59061354 12.7981924,2.28784328 12.6426258,1.96738177 C12.4523499,1.57538609 12.2880338,1.23684875 12.0007451,1.07051259 C11.7203791,0.908406947 11.3490575,0.933886185 10.9197589,0.963692086 C10.5578598,0.988594435 10.218363,1.01215071 9.89607658,0.926002043 C9.58753929,0.843699297 9.31390353,0.658133526 9.02421114,0.461703023 C8.65885068,0.213833303 8.34358306,0 8.00004807,0 C7.65718612,0 7.34297613,0.212967971 6.97896173,0.459587765 C6.68763483,0.657172045 6.41322989,0.843218557 6.10430801,0.925905895 C5.78154088,1.01205456 5.4436786,0.988786732 5.08591379,0.96398053 C4.67074893,0.935520702 4.2793325,0.908695391 3.99915871,1.07060874 C3.7122546,1.23665645 3.54813083,1.57461691 3.35814339,1.96613184 C3.20132684,2.28842017 3.05393273,2.59167117 2.82279417,2.82271498 C2.5916556,3.05404723 2.28956019,3.20086533 1.96977363,3.35624061 C1.5763381,3.54719067 1.23693746,3.71198846 1.0707946,3.99908659 C0.908016898,4.28031969 0.936380408,4.68808365 0.96387859,5.08238688 C0.98878079,5.44246139 1.01224078,5.78157563 0.926188774,6.1037678 C0.843309637,6.41355688 0.657456538,6.68729043 0.460738773,6.97717685 C0.213447428,7.34167418 0,7.65627066 0,7.99990385 C0,8.34267171 0.212870543,8.65697975 0.459585003,9.02090019 C0.657168096,9.31222883 0.843501932,9.58682771 0.926092626,9.89565531 C1.01233692,10.2184244 0.988876937,10.557154 0.96387859,10.9157863 C0.93397672,11.3476834 0.908209193,11.7198726 1.07050616,12.0003365 C1.23664902,12.2876269 1.57441515,12.4515594 1.96535085,12.6414518 C2.28754109,12.7977886 2.59098257,12.9450874 2.82289031,13.1770927 C3.05441347,13.4086173 3.20123069,13.7109068 3.35670118,14.0309837 C3.5474578,14.4242293 3.71187001,14.762959 3.99925486,14.929199 C4.28000553,15.0919776 4.68670941,15.0634217 5.0798565,15.0362118 C5.24301879,15.0248663 5.40916165,15.0133285 5.57059329,15.0133285" id="Fill-1"></path>
                </g>
                <polygon id="Fill-5" fill="#FFFFFF" points="12 6.59439764 9.24433371 6.21965131 7.99898251 4 6.75566629 6.21965131 4 6.59439764 5.99949126 8.34203001 5.48993406 10.8571429 7.99900339 9.67884816 10.5101077 10.8571429 9.9985103 8.34203001"></polygon>
            </g>
        </g>
    </g>
</svg>